%TF.GenerationSoftware,KiCad,Pcbnew,8.0.6*%
%TF.CreationDate,2024-11-25T04:34:58+09:00*%
%TF.ProjectId,pointify,706f696e-7469-4667-992e-6b696361645f,rev?*%
%TF.SameCoordinates,Original*%
%TF.FileFunction,Copper,L2,Bot*%
%TF.FilePolarity,Positive*%
%FSLAX46Y46*%
G04 Gerber Fmt 4.6, Leading zero omitted, Abs format (unit mm)*
G04 Created by KiCad (PCBNEW 8.0.6) date 2024-11-25 04:34:58*
%MOMM*%
%LPD*%
G01*
G04 APERTURE LIST*
%TA.AperFunction,ComponentPad*%
%ADD10R,1.700000X1.700000*%
%TD*%
%TA.AperFunction,ComponentPad*%
%ADD11O,1.700000X1.700000*%
%TD*%
%TA.AperFunction,ComponentPad*%
%ADD12O,2.100000X1.000000*%
%TD*%
%TA.AperFunction,ComponentPad*%
%ADD13O,1.800000X1.000000*%
%TD*%
%TA.AperFunction,ComponentPad*%
%ADD14R,1.000000X1.000000*%
%TD*%
%TA.AperFunction,ComponentPad*%
%ADD15O,1.000000X1.000000*%
%TD*%
%TA.AperFunction,ViaPad*%
%ADD16C,0.500000*%
%TD*%
%TA.AperFunction,ViaPad*%
%ADD17C,0.600000*%
%TD*%
%TA.AperFunction,Conductor*%
%ADD18C,0.200000*%
%TD*%
G04 APERTURE END LIST*
D10*
%TO.P,J2,1,Pin_1*%
%TO.N,OUT1*%
X134000000Y-87100000D03*
D11*
%TO.P,J2,2,Pin_2*%
%TO.N,OUT2*%
X131460000Y-87100000D03*
%TO.P,J2,3,Pin_3*%
%TO.N,OUT3*%
X128920000Y-87100000D03*
%TO.P,J2,4,Pin_4*%
%TO.N,GND*%
X126380000Y-87100000D03*
%TD*%
D12*
%TO.P,J3,S1,SHIELD*%
%TO.N,GND*%
X135585000Y-82520000D03*
D13*
X139765000Y-82520000D03*
D12*
X135585000Y-73880000D03*
D13*
X139765000Y-73880000D03*
%TD*%
D14*
%TO.P,J1,1,Pin_1*%
%TO.N,+3V3*%
X129170000Y-83900000D03*
D15*
%TO.P,J1,2,Pin_2*%
%TO.N,SWDIO*%
X127900000Y-83900000D03*
%TO.P,J1,3,Pin_3*%
%TO.N,SWCLK*%
X126630000Y-83900000D03*
%TO.P,J1,4,Pin_4*%
%TO.N,GND*%
X125360000Y-83900000D03*
%TD*%
D16*
%TO.N,+5V*%
X133150000Y-74850000D03*
X136100000Y-80050000D03*
D17*
%TO.N,GND*%
X131275735Y-82524265D03*
X120900000Y-73500000D03*
X120900000Y-80500000D03*
X124100000Y-80500000D03*
X124100000Y-73500000D03*
D16*
%TO.N,SWCLK*%
X131390000Y-76080000D03*
%TO.N,SWDIO*%
X131390000Y-77130000D03*
%TD*%
D18*
%TO.N,+5V*%
X133150000Y-74850000D02*
X136100000Y-77800000D01*
X136100000Y-77800000D02*
X136100000Y-80050000D01*
%TO.N,GND*%
X131280000Y-82520000D02*
X135585000Y-82520000D01*
X131275735Y-82524265D02*
X131280000Y-82520000D01*
%TO.N,SWCLK*%
X126630000Y-80840000D02*
X126630000Y-84000000D01*
X131390000Y-76080000D02*
X126630000Y-80840000D01*
%TO.N,SWDIO*%
X131390000Y-77130000D02*
X127900000Y-80620000D01*
X127900000Y-80620000D02*
X127900000Y-84000000D01*
%TD*%
%TA.AperFunction,Conductor*%
%TO.N,GND*%
G36*
X124343039Y-73219685D02*
G01*
X124388794Y-73272489D01*
X124400000Y-73324000D01*
X124400000Y-80676000D01*
X124380315Y-80743039D01*
X124327511Y-80788794D01*
X124276000Y-80800000D01*
X120724000Y-80800000D01*
X120656961Y-80780315D01*
X120611206Y-80727511D01*
X120600000Y-80676000D01*
X120600000Y-73324000D01*
X120619685Y-73256961D01*
X120672489Y-73211206D01*
X120724000Y-73200000D01*
X124276000Y-73200000D01*
X124343039Y-73219685D01*
G37*
%TD.AperFunction*%
%TD*%
M02*
