%TF.GenerationSoftware,KiCad,Pcbnew,8.0.6*%
%TF.CreationDate,2024-11-25T04:34:58+09:00*%
%TF.ProjectId,pointify,706f696e-7469-4667-992e-6b696361645f,rev?*%
%TF.SameCoordinates,Original*%
%TF.FileFunction,Soldermask,Top*%
%TF.FilePolarity,Negative*%
%FSLAX46Y46*%
G04 Gerber Fmt 4.6, Leading zero omitted, Abs format (unit mm)*
G04 Created by KiCad (PCBNEW 8.0.6) date 2024-11-25 04:34:58*
%MOMM*%
%LPD*%
G01*
G04 APERTURE LIST*
G04 Aperture macros list*
%AMRoundRect*
0 Rectangle with rounded corners*
0 $1 Rounding radius*
0 $2 $3 $4 $5 $6 $7 $8 $9 X,Y pos of 4 corners*
0 Add a 4 corners polygon primitive as box body*
4,1,4,$2,$3,$4,$5,$6,$7,$8,$9,$2,$3,0*
0 Add four circle primitives for the rounded corners*
1,1,$1+$1,$2,$3*
1,1,$1+$1,$4,$5*
1,1,$1+$1,$6,$7*
1,1,$1+$1,$8,$9*
0 Add four rect primitives between the rounded corners*
20,1,$1+$1,$2,$3,$4,$5,0*
20,1,$1+$1,$4,$5,$6,$7,0*
20,1,$1+$1,$6,$7,$8,$9,0*
20,1,$1+$1,$8,$9,$2,$3,0*%
G04 Aperture macros list end*
%ADD10R,1.700000X1.700000*%
%ADD11O,1.700000X1.700000*%
%ADD12C,2.200000*%
%ADD13RoundRect,0.225000X0.225000X0.250000X-0.225000X0.250000X-0.225000X-0.250000X0.225000X-0.250000X0*%
%ADD14RoundRect,0.200000X-0.200000X-0.275000X0.200000X-0.275000X0.200000X0.275000X-0.200000X0.275000X0*%
%ADD15RoundRect,0.225000X0.250000X-0.225000X0.250000X0.225000X-0.250000X0.225000X-0.250000X-0.225000X0*%
%ADD16C,0.650000*%
%ADD17RoundRect,0.150000X0.425000X-0.150000X0.425000X0.150000X-0.425000X0.150000X-0.425000X-0.150000X0*%
%ADD18RoundRect,0.075000X0.500000X-0.075000X0.500000X0.075000X-0.500000X0.075000X-0.500000X-0.075000X0*%
%ADD19O,2.100000X1.000000*%
%ADD20O,1.800000X1.000000*%
%ADD21R,2.400000X2.000000*%
%ADD22RoundRect,0.150000X-0.512500X-0.150000X0.512500X-0.150000X0.512500X0.150000X-0.512500X0.150000X0*%
%ADD23RoundRect,0.225000X-0.225000X-0.250000X0.225000X-0.250000X0.225000X0.250000X-0.225000X0.250000X0*%
%ADD24R,1.000000X1.000000*%
%ADD25O,1.000000X1.000000*%
%ADD26RoundRect,0.100000X-0.637500X-0.100000X0.637500X-0.100000X0.637500X0.100000X-0.637500X0.100000X0*%
%ADD27RoundRect,0.200000X0.200000X0.275000X-0.200000X0.275000X-0.200000X-0.275000X0.200000X-0.275000X0*%
%ADD28RoundRect,0.225000X-0.250000X0.225000X-0.250000X-0.225000X0.250000X-0.225000X0.250000X0.225000X0*%
G04 APERTURE END LIST*
D10*
%TO.C,J2*%
X134000000Y-87100000D03*
D11*
X131460000Y-87100000D03*
X128920000Y-87100000D03*
X126380000Y-87100000D03*
%TD*%
D12*
%TO.C,REF\u002A\u002A*%
X138400000Y-86500000D03*
%TD*%
D13*
%TO.C,C3*%
X128650000Y-71700000D03*
X127100000Y-71700000D03*
%TD*%
D14*
%TO.C,R1*%
X131475000Y-83500000D03*
X133125000Y-83500000D03*
%TD*%
D15*
%TO.C,C2*%
X134600000Y-72075000D03*
X134600000Y-70525000D03*
%TD*%
D13*
%TO.C,C6*%
X128675000Y-73200000D03*
X127125000Y-73200000D03*
%TD*%
D16*
%TO.C,J3*%
X136085000Y-81090000D03*
X136085000Y-75310000D03*
D17*
X135010000Y-81400000D03*
X135010000Y-80600000D03*
D18*
X135010000Y-79450000D03*
X135010000Y-78450000D03*
X135010000Y-77950000D03*
X135010000Y-76950000D03*
D17*
X135010000Y-75800000D03*
X135010000Y-75000000D03*
X135010000Y-75000000D03*
X135010000Y-75800000D03*
D18*
X135010000Y-76450000D03*
X135010000Y-77450000D03*
X135010000Y-78950000D03*
X135010000Y-79950000D03*
D17*
X135010000Y-80600000D03*
X135010000Y-81400000D03*
D19*
X135585000Y-82520000D03*
D20*
X139765000Y-82520000D03*
D19*
X135585000Y-73880000D03*
D20*
X139765000Y-73880000D03*
%TD*%
D21*
%TO.C,Y1*%
X122500000Y-78850000D03*
X122500000Y-75150000D03*
%TD*%
D22*
%TO.C,U1*%
X130625000Y-71250000D03*
X130625000Y-73150000D03*
X132900000Y-72200000D03*
%TD*%
D23*
%TO.C,C1*%
X130400000Y-74700000D03*
X131950000Y-74700000D03*
%TD*%
D14*
%TO.C,R2*%
X131475000Y-85000000D03*
X133125000Y-85000000D03*
%TD*%
D24*
%TO.C,J1*%
X129170000Y-83900000D03*
D25*
X127900000Y-83900000D03*
X126630000Y-83900000D03*
X125360000Y-83900000D03*
%TD*%
D15*
%TO.C,C4*%
X125200000Y-75900000D03*
X125200000Y-74350000D03*
%TD*%
D26*
%TO.C,U2*%
X127137500Y-76075000D03*
X127137500Y-76725000D03*
X127137500Y-77375000D03*
X127137500Y-78025000D03*
X127137500Y-78675000D03*
X127137500Y-79325000D03*
X127137500Y-79975000D03*
X127137500Y-80625000D03*
X127137500Y-81275000D03*
X127137500Y-81925000D03*
X132862500Y-81925000D03*
X132862500Y-81275000D03*
X132862500Y-80625000D03*
X132862500Y-79975000D03*
X132862500Y-79325000D03*
X132862500Y-78675000D03*
X132862500Y-78025000D03*
X132862500Y-77375000D03*
X132862500Y-76725000D03*
X132862500Y-76075000D03*
%TD*%
D12*
%TO.C,REF\u002A\u002A*%
X138400000Y-70000000D03*
%TD*%
%TO.C,REF\u002A\u002A*%
X121900000Y-86500000D03*
%TD*%
D27*
%TO.C,R3*%
X128750000Y-74700000D03*
X127100000Y-74700000D03*
%TD*%
D28*
%TO.C,C5*%
X125200000Y-78225000D03*
X125200000Y-79775000D03*
%TD*%
D12*
%TO.C,REF\u002A\u002A*%
X121900000Y-70000000D03*
%TD*%
M02*
