M48
; DRILL file {KiCad 8.0.6} date 2024-11-25T04:34:59+0900
; FORMAT={-:-/ absolute / inch / decimal}
; #@! TF.CreationDate,2024-11-25T04:34:59+09:00
; #@! TF.GenerationSoftware,Kicad,Pcbnew,8.0.6
; #@! TF.FileFunction,Plated,1,2,PTH
FMAT,2
INCH
; #@! TA.AperFunction,Plated,PTH,ViaDrill
T1C0.0118
; #@! TA.AperFunction,Plated,PTH,ComponentDrill
T2C0.0236
; #@! TA.AperFunction,Plated,PTH,ComponentDrill
T3C0.0256
; #@! TA.AperFunction,Plated,PTH,ComponentDrill
T4C0.0394
%
G90
G05
T1
X4.7598Y-2.8937
X4.7598Y-3.1693
X4.8858Y-2.8937
X4.8858Y-3.1693
X5.1683Y-3.249
X5.1728Y-2.9953
X5.1728Y-3.0366
X5.2421Y-2.9469
X5.3583Y-3.1516
T3
X4.9354Y-3.3031
X4.9854Y-3.3031
X5.0354Y-3.3031
X5.0854Y-3.3031
T4
X4.9756Y-3.4291
X5.0756Y-3.4291
X5.1756Y-3.4291
X5.2756Y-3.4291
T2
G00X5.3163Y-2.9087
M15
G01X5.3596Y-2.9087
M16
G05
G00X5.3163Y-3.2488
M15
G01X5.3596Y-3.2488
M16
G05
G00X5.4868Y-2.9087
M15
G01X5.5183Y-2.9087
M16
G05
G00X5.4868Y-3.2488
M15
G01X5.5183Y-3.2488
M16
G05
M30
