%TF.GenerationSoftware,KiCad,Pcbnew,8.0.6*%
%TF.CreationDate,2024-11-25T04:34:58+09:00*%
%TF.ProjectId,pointify,706f696e-7469-4667-992e-6b696361645f,rev?*%
%TF.SameCoordinates,Original*%
%TF.FileFunction,Legend,Top*%
%TF.FilePolarity,Positive*%
%FSLAX46Y46*%
G04 Gerber Fmt 4.6, Leading zero omitted, Abs format (unit mm)*
G04 Created by KiCad (PCBNEW 8.0.6) date 2024-11-25 04:34:58*
%MOMM*%
%LPD*%
G01*
G04 APERTURE LIST*
G04 Aperture macros list*
%AMRoundRect*
0 Rectangle with rounded corners*
0 $1 Rounding radius*
0 $2 $3 $4 $5 $6 $7 $8 $9 X,Y pos of 4 corners*
0 Add a 4 corners polygon primitive as box body*
4,1,4,$2,$3,$4,$5,$6,$7,$8,$9,$2,$3,0*
0 Add four circle primitives for the rounded corners*
1,1,$1+$1,$2,$3*
1,1,$1+$1,$4,$5*
1,1,$1+$1,$6,$7*
1,1,$1+$1,$8,$9*
0 Add four rect primitives between the rounded corners*
20,1,$1+$1,$2,$3,$4,$5,0*
20,1,$1+$1,$4,$5,$6,$7,0*
20,1,$1+$1,$6,$7,$8,$9,0*
20,1,$1+$1,$8,$9,$2,$3,0*%
G04 Aperture macros list end*
%ADD10C,0.080000*%
%ADD11C,0.100000*%
%ADD12C,0.120000*%
%ADD13R,1.700000X1.700000*%
%ADD14O,1.700000X1.700000*%
%ADD15C,2.200000*%
%ADD16RoundRect,0.225000X0.225000X0.250000X-0.225000X0.250000X-0.225000X-0.250000X0.225000X-0.250000X0*%
%ADD17RoundRect,0.200000X-0.200000X-0.275000X0.200000X-0.275000X0.200000X0.275000X-0.200000X0.275000X0*%
%ADD18RoundRect,0.225000X0.250000X-0.225000X0.250000X0.225000X-0.250000X0.225000X-0.250000X-0.225000X0*%
%ADD19C,0.650000*%
%ADD20RoundRect,0.150000X0.425000X-0.150000X0.425000X0.150000X-0.425000X0.150000X-0.425000X-0.150000X0*%
%ADD21RoundRect,0.075000X0.500000X-0.075000X0.500000X0.075000X-0.500000X0.075000X-0.500000X-0.075000X0*%
%ADD22O,2.100000X1.000000*%
%ADD23O,1.800000X1.000000*%
%ADD24R,2.400000X2.000000*%
%ADD25RoundRect,0.150000X-0.512500X-0.150000X0.512500X-0.150000X0.512500X0.150000X-0.512500X0.150000X0*%
%ADD26RoundRect,0.225000X-0.225000X-0.250000X0.225000X-0.250000X0.225000X0.250000X-0.225000X0.250000X0*%
%ADD27R,1.000000X1.000000*%
%ADD28O,1.000000X1.000000*%
%ADD29RoundRect,0.100000X-0.637500X-0.100000X0.637500X-0.100000X0.637500X0.100000X-0.637500X0.100000X0*%
%ADD30RoundRect,0.200000X0.200000X0.275000X-0.200000X0.275000X-0.200000X-0.275000X0.200000X-0.275000X0*%
%ADD31RoundRect,0.225000X-0.250000X0.225000X-0.250000X-0.225000X0.250000X-0.225000X0.250000X0.225000X0*%
G04 APERTURE END LIST*
D10*
X128709773Y-85146887D02*
X128957392Y-85146887D01*
X128957392Y-85146887D02*
X128824059Y-85299268D01*
X128824059Y-85299268D02*
X128881202Y-85299268D01*
X128881202Y-85299268D02*
X128919297Y-85318316D01*
X128919297Y-85318316D02*
X128938345Y-85337363D01*
X128938345Y-85337363D02*
X128957392Y-85375459D01*
X128957392Y-85375459D02*
X128957392Y-85470697D01*
X128957392Y-85470697D02*
X128938345Y-85508792D01*
X128938345Y-85508792D02*
X128919297Y-85527840D01*
X128919297Y-85527840D02*
X128881202Y-85546887D01*
X128881202Y-85546887D02*
X128766916Y-85546887D01*
X128766916Y-85546887D02*
X128728821Y-85527840D01*
X128728821Y-85527840D02*
X128709773Y-85508792D01*
X129071678Y-85146887D02*
X129205011Y-85546887D01*
X129205011Y-85546887D02*
X129338344Y-85146887D01*
X129433582Y-85146887D02*
X129681201Y-85146887D01*
X129681201Y-85146887D02*
X129547868Y-85299268D01*
X129547868Y-85299268D02*
X129605011Y-85299268D01*
X129605011Y-85299268D02*
X129643106Y-85318316D01*
X129643106Y-85318316D02*
X129662154Y-85337363D01*
X129662154Y-85337363D02*
X129681201Y-85375459D01*
X129681201Y-85375459D02*
X129681201Y-85470697D01*
X129681201Y-85470697D02*
X129662154Y-85508792D01*
X129662154Y-85508792D02*
X129643106Y-85527840D01*
X129643106Y-85527840D02*
X129605011Y-85546887D01*
X129605011Y-85546887D02*
X129490725Y-85546887D01*
X129490725Y-85546887D02*
X129452630Y-85527840D01*
X129452630Y-85527840D02*
X129433582Y-85508792D01*
X132328821Y-87884982D02*
X132347869Y-87865935D01*
X132347869Y-87865935D02*
X132385964Y-87846887D01*
X132385964Y-87846887D02*
X132481202Y-87846887D01*
X132481202Y-87846887D02*
X132519297Y-87865935D01*
X132519297Y-87865935D02*
X132538345Y-87884982D01*
X132538345Y-87884982D02*
X132557392Y-87923078D01*
X132557392Y-87923078D02*
X132557392Y-87961173D01*
X132557392Y-87961173D02*
X132538345Y-88018316D01*
X132538345Y-88018316D02*
X132309773Y-88246887D01*
X132309773Y-88246887D02*
X132557392Y-88246887D01*
X127447869Y-85546887D02*
X127447869Y-85146887D01*
X127447869Y-85146887D02*
X127543107Y-85146887D01*
X127543107Y-85146887D02*
X127600250Y-85165935D01*
X127600250Y-85165935D02*
X127638345Y-85204030D01*
X127638345Y-85204030D02*
X127657392Y-85242125D01*
X127657392Y-85242125D02*
X127676440Y-85318316D01*
X127676440Y-85318316D02*
X127676440Y-85375459D01*
X127676440Y-85375459D02*
X127657392Y-85451649D01*
X127657392Y-85451649D02*
X127638345Y-85489744D01*
X127638345Y-85489744D02*
X127600250Y-85527840D01*
X127600250Y-85527840D02*
X127543107Y-85546887D01*
X127543107Y-85546887D02*
X127447869Y-85546887D01*
X127847869Y-85546887D02*
X127847869Y-85146887D01*
X128114535Y-85146887D02*
X128190726Y-85146887D01*
X128190726Y-85146887D02*
X128228821Y-85165935D01*
X128228821Y-85165935D02*
X128266916Y-85204030D01*
X128266916Y-85204030D02*
X128285964Y-85280220D01*
X128285964Y-85280220D02*
X128285964Y-85413554D01*
X128285964Y-85413554D02*
X128266916Y-85489744D01*
X128266916Y-85489744D02*
X128228821Y-85527840D01*
X128228821Y-85527840D02*
X128190726Y-85546887D01*
X128190726Y-85546887D02*
X128114535Y-85546887D01*
X128114535Y-85546887D02*
X128076440Y-85527840D01*
X128076440Y-85527840D02*
X128038345Y-85489744D01*
X128038345Y-85489744D02*
X128019297Y-85413554D01*
X128019297Y-85413554D02*
X128019297Y-85280220D01*
X128019297Y-85280220D02*
X128038345Y-85204030D01*
X128038345Y-85204030D02*
X128076440Y-85165935D01*
X128076440Y-85165935D02*
X128114535Y-85146887D01*
X125057392Y-85165935D02*
X125019297Y-85146887D01*
X125019297Y-85146887D02*
X124962154Y-85146887D01*
X124962154Y-85146887D02*
X124905011Y-85165935D01*
X124905011Y-85165935D02*
X124866916Y-85204030D01*
X124866916Y-85204030D02*
X124847869Y-85242125D01*
X124847869Y-85242125D02*
X124828821Y-85318316D01*
X124828821Y-85318316D02*
X124828821Y-85375459D01*
X124828821Y-85375459D02*
X124847869Y-85451649D01*
X124847869Y-85451649D02*
X124866916Y-85489744D01*
X124866916Y-85489744D02*
X124905011Y-85527840D01*
X124905011Y-85527840D02*
X124962154Y-85546887D01*
X124962154Y-85546887D02*
X125000250Y-85546887D01*
X125000250Y-85546887D02*
X125057392Y-85527840D01*
X125057392Y-85527840D02*
X125076440Y-85508792D01*
X125076440Y-85508792D02*
X125076440Y-85375459D01*
X125076440Y-85375459D02*
X125000250Y-85375459D01*
X125247869Y-85546887D02*
X125247869Y-85146887D01*
X125247869Y-85146887D02*
X125476440Y-85546887D01*
X125476440Y-85546887D02*
X125476440Y-85146887D01*
X125666917Y-85546887D02*
X125666917Y-85146887D01*
X125666917Y-85146887D02*
X125762155Y-85146887D01*
X125762155Y-85146887D02*
X125819298Y-85165935D01*
X125819298Y-85165935D02*
X125857393Y-85204030D01*
X125857393Y-85204030D02*
X125876440Y-85242125D01*
X125876440Y-85242125D02*
X125895488Y-85318316D01*
X125895488Y-85318316D02*
X125895488Y-85375459D01*
X125895488Y-85375459D02*
X125876440Y-85451649D01*
X125876440Y-85451649D02*
X125857393Y-85489744D01*
X125857393Y-85489744D02*
X125819298Y-85527840D01*
X125819298Y-85527840D02*
X125762155Y-85546887D01*
X125762155Y-85546887D02*
X125666917Y-85546887D01*
X127357392Y-87865935D02*
X127319297Y-87846887D01*
X127319297Y-87846887D02*
X127262154Y-87846887D01*
X127262154Y-87846887D02*
X127205011Y-87865935D01*
X127205011Y-87865935D02*
X127166916Y-87904030D01*
X127166916Y-87904030D02*
X127147869Y-87942125D01*
X127147869Y-87942125D02*
X127128821Y-88018316D01*
X127128821Y-88018316D02*
X127128821Y-88075459D01*
X127128821Y-88075459D02*
X127147869Y-88151649D01*
X127147869Y-88151649D02*
X127166916Y-88189744D01*
X127166916Y-88189744D02*
X127205011Y-88227840D01*
X127205011Y-88227840D02*
X127262154Y-88246887D01*
X127262154Y-88246887D02*
X127300250Y-88246887D01*
X127300250Y-88246887D02*
X127357392Y-88227840D01*
X127357392Y-88227840D02*
X127376440Y-88208792D01*
X127376440Y-88208792D02*
X127376440Y-88075459D01*
X127376440Y-88075459D02*
X127300250Y-88075459D01*
X127547869Y-88246887D02*
X127547869Y-87846887D01*
X127547869Y-87846887D02*
X127776440Y-88246887D01*
X127776440Y-88246887D02*
X127776440Y-87846887D01*
X127966917Y-88246887D02*
X127966917Y-87846887D01*
X127966917Y-87846887D02*
X128062155Y-87846887D01*
X128062155Y-87846887D02*
X128119298Y-87865935D01*
X128119298Y-87865935D02*
X128157393Y-87904030D01*
X128157393Y-87904030D02*
X128176440Y-87942125D01*
X128176440Y-87942125D02*
X128195488Y-88018316D01*
X128195488Y-88018316D02*
X128195488Y-88075459D01*
X128195488Y-88075459D02*
X128176440Y-88151649D01*
X128176440Y-88151649D02*
X128157393Y-88189744D01*
X128157393Y-88189744D02*
X128119298Y-88227840D01*
X128119298Y-88227840D02*
X128062155Y-88246887D01*
X128062155Y-88246887D02*
X127966917Y-88246887D01*
X135357392Y-88246887D02*
X135128821Y-88246887D01*
X135243107Y-88246887D02*
X135243107Y-87846887D01*
X135243107Y-87846887D02*
X135205011Y-87904030D01*
X135205011Y-87904030D02*
X135166916Y-87942125D01*
X135166916Y-87942125D02*
X135128821Y-87961173D01*
X129809773Y-87846887D02*
X130057392Y-87846887D01*
X130057392Y-87846887D02*
X129924059Y-87999268D01*
X129924059Y-87999268D02*
X129981202Y-87999268D01*
X129981202Y-87999268D02*
X130019297Y-88018316D01*
X130019297Y-88018316D02*
X130038345Y-88037363D01*
X130038345Y-88037363D02*
X130057392Y-88075459D01*
X130057392Y-88075459D02*
X130057392Y-88170697D01*
X130057392Y-88170697D02*
X130038345Y-88208792D01*
X130038345Y-88208792D02*
X130019297Y-88227840D01*
X130019297Y-88227840D02*
X129981202Y-88246887D01*
X129981202Y-88246887D02*
X129866916Y-88246887D01*
X129866916Y-88246887D02*
X129828821Y-88227840D01*
X129828821Y-88227840D02*
X129809773Y-88208792D01*
X126376440Y-85508792D02*
X126357392Y-85527840D01*
X126357392Y-85527840D02*
X126300250Y-85546887D01*
X126300250Y-85546887D02*
X126262154Y-85546887D01*
X126262154Y-85546887D02*
X126205011Y-85527840D01*
X126205011Y-85527840D02*
X126166916Y-85489744D01*
X126166916Y-85489744D02*
X126147869Y-85451649D01*
X126147869Y-85451649D02*
X126128821Y-85375459D01*
X126128821Y-85375459D02*
X126128821Y-85318316D01*
X126128821Y-85318316D02*
X126147869Y-85242125D01*
X126147869Y-85242125D02*
X126166916Y-85204030D01*
X126166916Y-85204030D02*
X126205011Y-85165935D01*
X126205011Y-85165935D02*
X126262154Y-85146887D01*
X126262154Y-85146887D02*
X126300250Y-85146887D01*
X126300250Y-85146887D02*
X126357392Y-85165935D01*
X126357392Y-85165935D02*
X126376440Y-85184982D01*
X126738345Y-85546887D02*
X126547869Y-85546887D01*
X126547869Y-85546887D02*
X126547869Y-85146887D01*
X126871679Y-85546887D02*
X126871679Y-85146887D01*
X127100250Y-85546887D02*
X126928821Y-85318316D01*
X127100250Y-85146887D02*
X126871679Y-85375459D01*
D11*
X124099999Y-87772371D02*
X124099999Y-88200942D01*
X124099999Y-88200942D02*
X124071428Y-88286657D01*
X124071428Y-88286657D02*
X124014285Y-88343800D01*
X124014285Y-88343800D02*
X123928571Y-88372371D01*
X123928571Y-88372371D02*
X123871428Y-88372371D01*
X124357142Y-87829514D02*
X124385714Y-87800942D01*
X124385714Y-87800942D02*
X124442857Y-87772371D01*
X124442857Y-87772371D02*
X124585714Y-87772371D01*
X124585714Y-87772371D02*
X124642857Y-87800942D01*
X124642857Y-87800942D02*
X124671428Y-87829514D01*
X124671428Y-87829514D02*
X124699999Y-87886657D01*
X124699999Y-87886657D02*
X124699999Y-87943800D01*
X124699999Y-87943800D02*
X124671428Y-88029514D01*
X124671428Y-88029514D02*
X124328571Y-88372371D01*
X124328571Y-88372371D02*
X124699999Y-88372371D01*
X125600000Y-71915228D02*
X125571428Y-71943800D01*
X125571428Y-71943800D02*
X125485714Y-71972371D01*
X125485714Y-71972371D02*
X125428571Y-71972371D01*
X125428571Y-71972371D02*
X125342857Y-71943800D01*
X125342857Y-71943800D02*
X125285714Y-71886657D01*
X125285714Y-71886657D02*
X125257143Y-71829514D01*
X125257143Y-71829514D02*
X125228571Y-71715228D01*
X125228571Y-71715228D02*
X125228571Y-71629514D01*
X125228571Y-71629514D02*
X125257143Y-71515228D01*
X125257143Y-71515228D02*
X125285714Y-71458085D01*
X125285714Y-71458085D02*
X125342857Y-71400942D01*
X125342857Y-71400942D02*
X125428571Y-71372371D01*
X125428571Y-71372371D02*
X125485714Y-71372371D01*
X125485714Y-71372371D02*
X125571428Y-71400942D01*
X125571428Y-71400942D02*
X125600000Y-71429514D01*
X125800000Y-71372371D02*
X126171428Y-71372371D01*
X126171428Y-71372371D02*
X125971428Y-71600942D01*
X125971428Y-71600942D02*
X126057143Y-71600942D01*
X126057143Y-71600942D02*
X126114286Y-71629514D01*
X126114286Y-71629514D02*
X126142857Y-71658085D01*
X126142857Y-71658085D02*
X126171428Y-71715228D01*
X126171428Y-71715228D02*
X126171428Y-71858085D01*
X126171428Y-71858085D02*
X126142857Y-71915228D01*
X126142857Y-71915228D02*
X126114286Y-71943800D01*
X126114286Y-71943800D02*
X126057143Y-71972371D01*
X126057143Y-71972371D02*
X125885714Y-71972371D01*
X125885714Y-71972371D02*
X125828571Y-71943800D01*
X125828571Y-71943800D02*
X125800000Y-71915228D01*
X134300000Y-83772371D02*
X134100000Y-83486657D01*
X133957143Y-83772371D02*
X133957143Y-83172371D01*
X133957143Y-83172371D02*
X134185714Y-83172371D01*
X134185714Y-83172371D02*
X134242857Y-83200942D01*
X134242857Y-83200942D02*
X134271428Y-83229514D01*
X134271428Y-83229514D02*
X134300000Y-83286657D01*
X134300000Y-83286657D02*
X134300000Y-83372371D01*
X134300000Y-83372371D02*
X134271428Y-83429514D01*
X134271428Y-83429514D02*
X134242857Y-83458085D01*
X134242857Y-83458085D02*
X134185714Y-83486657D01*
X134185714Y-83486657D02*
X133957143Y-83486657D01*
X134871428Y-83772371D02*
X134528571Y-83772371D01*
X134700000Y-83772371D02*
X134700000Y-83172371D01*
X134700000Y-83172371D02*
X134642857Y-83258085D01*
X134642857Y-83258085D02*
X134585714Y-83315228D01*
X134585714Y-83315228D02*
X134528571Y-83343800D01*
X133615228Y-70699999D02*
X133643800Y-70728571D01*
X133643800Y-70728571D02*
X133672371Y-70814285D01*
X133672371Y-70814285D02*
X133672371Y-70871428D01*
X133672371Y-70871428D02*
X133643800Y-70957142D01*
X133643800Y-70957142D02*
X133586657Y-71014285D01*
X133586657Y-71014285D02*
X133529514Y-71042856D01*
X133529514Y-71042856D02*
X133415228Y-71071428D01*
X133415228Y-71071428D02*
X133329514Y-71071428D01*
X133329514Y-71071428D02*
X133215228Y-71042856D01*
X133215228Y-71042856D02*
X133158085Y-71014285D01*
X133158085Y-71014285D02*
X133100942Y-70957142D01*
X133100942Y-70957142D02*
X133072371Y-70871428D01*
X133072371Y-70871428D02*
X133072371Y-70814285D01*
X133072371Y-70814285D02*
X133100942Y-70728571D01*
X133100942Y-70728571D02*
X133129514Y-70699999D01*
X133129514Y-70471428D02*
X133100942Y-70442856D01*
X133100942Y-70442856D02*
X133072371Y-70385714D01*
X133072371Y-70385714D02*
X133072371Y-70242856D01*
X133072371Y-70242856D02*
X133100942Y-70185714D01*
X133100942Y-70185714D02*
X133129514Y-70157142D01*
X133129514Y-70157142D02*
X133186657Y-70128571D01*
X133186657Y-70128571D02*
X133243800Y-70128571D01*
X133243800Y-70128571D02*
X133329514Y-70157142D01*
X133329514Y-70157142D02*
X133672371Y-70499999D01*
X133672371Y-70499999D02*
X133672371Y-70128571D01*
D10*
X126342792Y-73266666D02*
X126361840Y-73285714D01*
X126361840Y-73285714D02*
X126380887Y-73342856D01*
X126380887Y-73342856D02*
X126380887Y-73380952D01*
X126380887Y-73380952D02*
X126361840Y-73438095D01*
X126361840Y-73438095D02*
X126323744Y-73476190D01*
X126323744Y-73476190D02*
X126285649Y-73495237D01*
X126285649Y-73495237D02*
X126209459Y-73514285D01*
X126209459Y-73514285D02*
X126152316Y-73514285D01*
X126152316Y-73514285D02*
X126076125Y-73495237D01*
X126076125Y-73495237D02*
X126038030Y-73476190D01*
X126038030Y-73476190D02*
X125999935Y-73438095D01*
X125999935Y-73438095D02*
X125980887Y-73380952D01*
X125980887Y-73380952D02*
X125980887Y-73342856D01*
X125980887Y-73342856D02*
X125999935Y-73285714D01*
X125999935Y-73285714D02*
X126018982Y-73266666D01*
X125980887Y-72923809D02*
X125980887Y-72999999D01*
X125980887Y-72999999D02*
X125999935Y-73038095D01*
X125999935Y-73038095D02*
X126018982Y-73057142D01*
X126018982Y-73057142D02*
X126076125Y-73095237D01*
X126076125Y-73095237D02*
X126152316Y-73114285D01*
X126152316Y-73114285D02*
X126304697Y-73114285D01*
X126304697Y-73114285D02*
X126342792Y-73095237D01*
X126342792Y-73095237D02*
X126361840Y-73076190D01*
X126361840Y-73076190D02*
X126380887Y-73038095D01*
X126380887Y-73038095D02*
X126380887Y-72961904D01*
X126380887Y-72961904D02*
X126361840Y-72923809D01*
X126361840Y-72923809D02*
X126342792Y-72904761D01*
X126342792Y-72904761D02*
X126304697Y-72885714D01*
X126304697Y-72885714D02*
X126209459Y-72885714D01*
X126209459Y-72885714D02*
X126171363Y-72904761D01*
X126171363Y-72904761D02*
X126152316Y-72923809D01*
X126152316Y-72923809D02*
X126133268Y-72961904D01*
X126133268Y-72961904D02*
X126133268Y-73038095D01*
X126133268Y-73038095D02*
X126152316Y-73076190D01*
X126152316Y-73076190D02*
X126171363Y-73095237D01*
X126171363Y-73095237D02*
X126209459Y-73114285D01*
D11*
X135599999Y-72372371D02*
X135599999Y-72800942D01*
X135599999Y-72800942D02*
X135571428Y-72886657D01*
X135571428Y-72886657D02*
X135514285Y-72943800D01*
X135514285Y-72943800D02*
X135428571Y-72972371D01*
X135428571Y-72972371D02*
X135371428Y-72972371D01*
X135828571Y-72372371D02*
X136199999Y-72372371D01*
X136199999Y-72372371D02*
X135999999Y-72600942D01*
X135999999Y-72600942D02*
X136085714Y-72600942D01*
X136085714Y-72600942D02*
X136142857Y-72629514D01*
X136142857Y-72629514D02*
X136171428Y-72658085D01*
X136171428Y-72658085D02*
X136199999Y-72715228D01*
X136199999Y-72715228D02*
X136199999Y-72858085D01*
X136199999Y-72858085D02*
X136171428Y-72915228D01*
X136171428Y-72915228D02*
X136142857Y-72943800D01*
X136142857Y-72943800D02*
X136085714Y-72972371D01*
X136085714Y-72972371D02*
X135914285Y-72972371D01*
X135914285Y-72972371D02*
X135857142Y-72943800D01*
X135857142Y-72943800D02*
X135828571Y-72915228D01*
X122214285Y-80786657D02*
X122214285Y-81072371D01*
X122014285Y-80472371D02*
X122214285Y-80786657D01*
X122214285Y-80786657D02*
X122414285Y-80472371D01*
X122928571Y-81072371D02*
X122585714Y-81072371D01*
X122757143Y-81072371D02*
X122757143Y-80472371D01*
X122757143Y-80472371D02*
X122700000Y-80558085D01*
X122700000Y-80558085D02*
X122642857Y-80615228D01*
X122642857Y-80615228D02*
X122585714Y-80643800D01*
X132805357Y-72972371D02*
X132805357Y-73458085D01*
X132805357Y-73458085D02*
X132833928Y-73515228D01*
X132833928Y-73515228D02*
X132862500Y-73543800D01*
X132862500Y-73543800D02*
X132919642Y-73572371D01*
X132919642Y-73572371D02*
X133033928Y-73572371D01*
X133033928Y-73572371D02*
X133091071Y-73543800D01*
X133091071Y-73543800D02*
X133119642Y-73515228D01*
X133119642Y-73515228D02*
X133148214Y-73458085D01*
X133148214Y-73458085D02*
X133148214Y-72972371D01*
X133748213Y-73572371D02*
X133405356Y-73572371D01*
X133576785Y-73572371D02*
X133576785Y-72972371D01*
X133576785Y-72972371D02*
X133519642Y-73058085D01*
X133519642Y-73058085D02*
X133462499Y-73115228D01*
X133462499Y-73115228D02*
X133405356Y-73143800D01*
X133200000Y-74915228D02*
X133171428Y-74943800D01*
X133171428Y-74943800D02*
X133085714Y-74972371D01*
X133085714Y-74972371D02*
X133028571Y-74972371D01*
X133028571Y-74972371D02*
X132942857Y-74943800D01*
X132942857Y-74943800D02*
X132885714Y-74886657D01*
X132885714Y-74886657D02*
X132857143Y-74829514D01*
X132857143Y-74829514D02*
X132828571Y-74715228D01*
X132828571Y-74715228D02*
X132828571Y-74629514D01*
X132828571Y-74629514D02*
X132857143Y-74515228D01*
X132857143Y-74515228D02*
X132885714Y-74458085D01*
X132885714Y-74458085D02*
X132942857Y-74400942D01*
X132942857Y-74400942D02*
X133028571Y-74372371D01*
X133028571Y-74372371D02*
X133085714Y-74372371D01*
X133085714Y-74372371D02*
X133171428Y-74400942D01*
X133171428Y-74400942D02*
X133200000Y-74429514D01*
X133771428Y-74972371D02*
X133428571Y-74972371D01*
X133600000Y-74972371D02*
X133600000Y-74372371D01*
X133600000Y-74372371D02*
X133542857Y-74458085D01*
X133542857Y-74458085D02*
X133485714Y-74515228D01*
X133485714Y-74515228D02*
X133428571Y-74543800D01*
X134300000Y-85272371D02*
X134100000Y-84986657D01*
X133957143Y-85272371D02*
X133957143Y-84672371D01*
X133957143Y-84672371D02*
X134185714Y-84672371D01*
X134185714Y-84672371D02*
X134242857Y-84700942D01*
X134242857Y-84700942D02*
X134271428Y-84729514D01*
X134271428Y-84729514D02*
X134300000Y-84786657D01*
X134300000Y-84786657D02*
X134300000Y-84872371D01*
X134300000Y-84872371D02*
X134271428Y-84929514D01*
X134271428Y-84929514D02*
X134242857Y-84958085D01*
X134242857Y-84958085D02*
X134185714Y-84986657D01*
X134185714Y-84986657D02*
X133957143Y-84986657D01*
X134528571Y-84729514D02*
X134557143Y-84700942D01*
X134557143Y-84700942D02*
X134614286Y-84672371D01*
X134614286Y-84672371D02*
X134757143Y-84672371D01*
X134757143Y-84672371D02*
X134814286Y-84700942D01*
X134814286Y-84700942D02*
X134842857Y-84729514D01*
X134842857Y-84729514D02*
X134871428Y-84786657D01*
X134871428Y-84786657D02*
X134871428Y-84843800D01*
X134871428Y-84843800D02*
X134842857Y-84929514D01*
X134842857Y-84929514D02*
X134500000Y-85272371D01*
X134500000Y-85272371D02*
X134871428Y-85272371D01*
X123599999Y-83572371D02*
X123599999Y-84000942D01*
X123599999Y-84000942D02*
X123571428Y-84086657D01*
X123571428Y-84086657D02*
X123514285Y-84143800D01*
X123514285Y-84143800D02*
X123428571Y-84172371D01*
X123428571Y-84172371D02*
X123371428Y-84172371D01*
X124199999Y-84172371D02*
X123857142Y-84172371D01*
X124028571Y-84172371D02*
X124028571Y-83572371D01*
X124028571Y-83572371D02*
X123971428Y-83658085D01*
X123971428Y-83658085D02*
X123914285Y-83715228D01*
X123914285Y-83715228D02*
X123857142Y-83743800D01*
X125100000Y-73415228D02*
X125071428Y-73443800D01*
X125071428Y-73443800D02*
X124985714Y-73472371D01*
X124985714Y-73472371D02*
X124928571Y-73472371D01*
X124928571Y-73472371D02*
X124842857Y-73443800D01*
X124842857Y-73443800D02*
X124785714Y-73386657D01*
X124785714Y-73386657D02*
X124757143Y-73329514D01*
X124757143Y-73329514D02*
X124728571Y-73215228D01*
X124728571Y-73215228D02*
X124728571Y-73129514D01*
X124728571Y-73129514D02*
X124757143Y-73015228D01*
X124757143Y-73015228D02*
X124785714Y-72958085D01*
X124785714Y-72958085D02*
X124842857Y-72900942D01*
X124842857Y-72900942D02*
X124928571Y-72872371D01*
X124928571Y-72872371D02*
X124985714Y-72872371D01*
X124985714Y-72872371D02*
X125071428Y-72900942D01*
X125071428Y-72900942D02*
X125100000Y-72929514D01*
X125614286Y-73072371D02*
X125614286Y-73472371D01*
X125471428Y-72843800D02*
X125328571Y-73272371D01*
X125328571Y-73272371D02*
X125700000Y-73272371D01*
X124942857Y-81572371D02*
X124942857Y-82058085D01*
X124942857Y-82058085D02*
X124971428Y-82115228D01*
X124971428Y-82115228D02*
X125000000Y-82143800D01*
X125000000Y-82143800D02*
X125057142Y-82172371D01*
X125057142Y-82172371D02*
X125171428Y-82172371D01*
X125171428Y-82172371D02*
X125228571Y-82143800D01*
X125228571Y-82143800D02*
X125257142Y-82115228D01*
X125257142Y-82115228D02*
X125285714Y-82058085D01*
X125285714Y-82058085D02*
X125285714Y-81572371D01*
X125542856Y-81629514D02*
X125571428Y-81600942D01*
X125571428Y-81600942D02*
X125628571Y-81572371D01*
X125628571Y-81572371D02*
X125771428Y-81572371D01*
X125771428Y-81572371D02*
X125828571Y-81600942D01*
X125828571Y-81600942D02*
X125857142Y-81629514D01*
X125857142Y-81629514D02*
X125885713Y-81686657D01*
X125885713Y-81686657D02*
X125885713Y-81743800D01*
X125885713Y-81743800D02*
X125857142Y-81829514D01*
X125857142Y-81829514D02*
X125514285Y-82172371D01*
X125514285Y-82172371D02*
X125885713Y-82172371D01*
D10*
X126380887Y-74766666D02*
X126190411Y-74899999D01*
X126380887Y-74995237D02*
X125980887Y-74995237D01*
X125980887Y-74995237D02*
X125980887Y-74842856D01*
X125980887Y-74842856D02*
X125999935Y-74804761D01*
X125999935Y-74804761D02*
X126018982Y-74785714D01*
X126018982Y-74785714D02*
X126057078Y-74766666D01*
X126057078Y-74766666D02*
X126114220Y-74766666D01*
X126114220Y-74766666D02*
X126152316Y-74785714D01*
X126152316Y-74785714D02*
X126171363Y-74804761D01*
X126171363Y-74804761D02*
X126190411Y-74842856D01*
X126190411Y-74842856D02*
X126190411Y-74995237D01*
X125980887Y-74633333D02*
X125980887Y-74385714D01*
X125980887Y-74385714D02*
X126133268Y-74519047D01*
X126133268Y-74519047D02*
X126133268Y-74461904D01*
X126133268Y-74461904D02*
X126152316Y-74423809D01*
X126152316Y-74423809D02*
X126171363Y-74404761D01*
X126171363Y-74404761D02*
X126209459Y-74385714D01*
X126209459Y-74385714D02*
X126304697Y-74385714D01*
X126304697Y-74385714D02*
X126342792Y-74404761D01*
X126342792Y-74404761D02*
X126361840Y-74423809D01*
X126361840Y-74423809D02*
X126380887Y-74461904D01*
X126380887Y-74461904D02*
X126380887Y-74576190D01*
X126380887Y-74576190D02*
X126361840Y-74614285D01*
X126361840Y-74614285D02*
X126342792Y-74633333D01*
D11*
X125100000Y-77315228D02*
X125071428Y-77343800D01*
X125071428Y-77343800D02*
X124985714Y-77372371D01*
X124985714Y-77372371D02*
X124928571Y-77372371D01*
X124928571Y-77372371D02*
X124842857Y-77343800D01*
X124842857Y-77343800D02*
X124785714Y-77286657D01*
X124785714Y-77286657D02*
X124757143Y-77229514D01*
X124757143Y-77229514D02*
X124728571Y-77115228D01*
X124728571Y-77115228D02*
X124728571Y-77029514D01*
X124728571Y-77029514D02*
X124757143Y-76915228D01*
X124757143Y-76915228D02*
X124785714Y-76858085D01*
X124785714Y-76858085D02*
X124842857Y-76800942D01*
X124842857Y-76800942D02*
X124928571Y-76772371D01*
X124928571Y-76772371D02*
X124985714Y-76772371D01*
X124985714Y-76772371D02*
X125071428Y-76800942D01*
X125071428Y-76800942D02*
X125100000Y-76829514D01*
X125642857Y-76772371D02*
X125357143Y-76772371D01*
X125357143Y-76772371D02*
X125328571Y-77058085D01*
X125328571Y-77058085D02*
X125357143Y-77029514D01*
X125357143Y-77029514D02*
X125414286Y-77000942D01*
X125414286Y-77000942D02*
X125557143Y-77000942D01*
X125557143Y-77000942D02*
X125614286Y-77029514D01*
X125614286Y-77029514D02*
X125642857Y-77058085D01*
X125642857Y-77058085D02*
X125671428Y-77115228D01*
X125671428Y-77115228D02*
X125671428Y-77258085D01*
X125671428Y-77258085D02*
X125642857Y-77315228D01*
X125642857Y-77315228D02*
X125614286Y-77343800D01*
X125614286Y-77343800D02*
X125557143Y-77372371D01*
X125557143Y-77372371D02*
X125414286Y-77372371D01*
X125414286Y-77372371D02*
X125357143Y-77343800D01*
X125357143Y-77343800D02*
X125328571Y-77315228D01*
D12*
%TO.C,J2*%
X125050000Y-85770000D02*
X125050000Y-88430000D01*
X132730000Y-85770000D02*
X125050000Y-85770000D01*
X132730000Y-85770000D02*
X132730000Y-88430000D01*
X132730000Y-88430000D02*
X125050000Y-88430000D01*
X134000000Y-85770000D02*
X135330000Y-85770000D01*
X135330000Y-85770000D02*
X135330000Y-87100000D01*
%TO.C,C3*%
X128015580Y-71190000D02*
X127734420Y-71190000D01*
X128015580Y-72210000D02*
X127734420Y-72210000D01*
%TO.C,R1*%
X132062742Y-82977500D02*
X132537258Y-82977500D01*
X132062742Y-84022500D02*
X132537258Y-84022500D01*
%TO.C,C2*%
X134090000Y-71440580D02*
X134090000Y-71159420D01*
X135110000Y-71440580D02*
X135110000Y-71159420D01*
%TO.C,C6*%
X128040580Y-73710000D02*
X127759420Y-73710000D01*
X128040580Y-72690000D02*
X127759420Y-72690000D01*
%TO.C,J3*%
X138590000Y-73530000D02*
X136890000Y-73530000D01*
X138590000Y-82870000D02*
X136890000Y-82870000D01*
%TO.C,Y1*%
X120700000Y-74300000D02*
X120700000Y-80050000D01*
X120700000Y-80050000D02*
X124300000Y-80050000D01*
X124300000Y-80050000D02*
X124300000Y-74300000D01*
%TO.C,U1*%
X131762500Y-70640000D02*
X130962500Y-70640000D01*
X131762500Y-70640000D02*
X132562500Y-70640000D01*
X131762500Y-73760000D02*
X130962500Y-73760000D01*
X131762500Y-73760000D02*
X132562500Y-73760000D01*
X130462500Y-70690000D02*
X130222500Y-70360000D01*
X130702500Y-70360000D01*
X130462500Y-70690000D01*
G36*
X130462500Y-70690000D02*
G01*
X130222500Y-70360000D01*
X130702500Y-70360000D01*
X130462500Y-70690000D01*
G37*
%TO.C,C1*%
X131034420Y-74190000D02*
X131315580Y-74190000D01*
X131034420Y-75210000D02*
X131315580Y-75210000D01*
%TO.C,R2*%
X132062742Y-84477500D02*
X132537258Y-84477500D01*
X132062742Y-85522500D02*
X132537258Y-85522500D01*
%TO.C,J1*%
X124665000Y-82790000D02*
X124665000Y-83592470D01*
X124665000Y-84207530D02*
X124665000Y-85010000D01*
X128410000Y-82790000D02*
X124665000Y-82790000D01*
X128410000Y-82790000D02*
X128410000Y-83336529D01*
X128410000Y-84463471D02*
X128410000Y-85010000D01*
X128410000Y-85010000D02*
X124665000Y-85010000D01*
X129170000Y-82790000D02*
X129930000Y-82790000D01*
X129930000Y-82790000D02*
X129930000Y-83900000D01*
%TO.C,C4*%
X124690000Y-75265580D02*
X124690000Y-74984420D01*
X125710000Y-75265580D02*
X125710000Y-74984420D01*
%TO.C,U2*%
X130000000Y-75615000D02*
X127800000Y-75615000D01*
X130000000Y-75615000D02*
X132200000Y-75615000D01*
X130000000Y-82385000D02*
X127800000Y-82385000D01*
X130000000Y-82385000D02*
X132200000Y-82385000D01*
X126140000Y-76075000D02*
X125810000Y-76315000D01*
X125810000Y-75835000D01*
X126140000Y-76075000D01*
G36*
X126140000Y-76075000D02*
G01*
X125810000Y-76315000D01*
X125810000Y-75835000D01*
X126140000Y-76075000D01*
G37*
%TO.C,R3*%
X128162258Y-75222500D02*
X127687742Y-75222500D01*
X128162258Y-74177500D02*
X127687742Y-74177500D01*
%TO.C,C5*%
X124690000Y-78859420D02*
X124690000Y-79140580D01*
X125710000Y-78859420D02*
X125710000Y-79140580D01*
%TD*%
%LPC*%
D13*
%TO.C,J2*%
X134000000Y-87100000D03*
D14*
X131460000Y-87100000D03*
X128920000Y-87100000D03*
X126380000Y-87100000D03*
%TD*%
D15*
%TO.C,REF\u002A\u002A*%
X138400000Y-86500000D03*
%TD*%
D16*
%TO.C,C3*%
X128650000Y-71700000D03*
X127100000Y-71700000D03*
%TD*%
D17*
%TO.C,R1*%
X131475000Y-83500000D03*
X133125000Y-83500000D03*
%TD*%
D18*
%TO.C,C2*%
X134600000Y-72075000D03*
X134600000Y-70525000D03*
%TD*%
D16*
%TO.C,C6*%
X128675000Y-73200000D03*
X127125000Y-73200000D03*
%TD*%
D19*
%TO.C,J3*%
X136085000Y-81090000D03*
X136085000Y-75310000D03*
D20*
X135010000Y-81400000D03*
X135010000Y-80600000D03*
D21*
X135010000Y-79450000D03*
X135010000Y-78450000D03*
X135010000Y-77950000D03*
X135010000Y-76950000D03*
D20*
X135010000Y-75800000D03*
X135010000Y-75000000D03*
X135010000Y-75000000D03*
X135010000Y-75800000D03*
D21*
X135010000Y-76450000D03*
X135010000Y-77450000D03*
X135010000Y-78950000D03*
X135010000Y-79950000D03*
D20*
X135010000Y-80600000D03*
X135010000Y-81400000D03*
D22*
X135585000Y-82520000D03*
D23*
X139765000Y-82520000D03*
D22*
X135585000Y-73880000D03*
D23*
X139765000Y-73880000D03*
%TD*%
D24*
%TO.C,Y1*%
X122500000Y-78850000D03*
X122500000Y-75150000D03*
%TD*%
D25*
%TO.C,U1*%
X130625000Y-71250000D03*
X130625000Y-73150000D03*
X132900000Y-72200000D03*
%TD*%
D26*
%TO.C,C1*%
X130400000Y-74700000D03*
X131950000Y-74700000D03*
%TD*%
D17*
%TO.C,R2*%
X131475000Y-85000000D03*
X133125000Y-85000000D03*
%TD*%
D27*
%TO.C,J1*%
X129170000Y-83900000D03*
D28*
X127900000Y-83900000D03*
X126630000Y-83900000D03*
X125360000Y-83900000D03*
%TD*%
D18*
%TO.C,C4*%
X125200000Y-75900000D03*
X125200000Y-74350000D03*
%TD*%
D29*
%TO.C,U2*%
X127137500Y-76075000D03*
X127137500Y-76725000D03*
X127137500Y-77375000D03*
X127137500Y-78025000D03*
X127137500Y-78675000D03*
X127137500Y-79325000D03*
X127137500Y-79975000D03*
X127137500Y-80625000D03*
X127137500Y-81275000D03*
X127137500Y-81925000D03*
X132862500Y-81925000D03*
X132862500Y-81275000D03*
X132862500Y-80625000D03*
X132862500Y-79975000D03*
X132862500Y-79325000D03*
X132862500Y-78675000D03*
X132862500Y-78025000D03*
X132862500Y-77375000D03*
X132862500Y-76725000D03*
X132862500Y-76075000D03*
%TD*%
D15*
%TO.C,REF\u002A\u002A*%
X138400000Y-70000000D03*
%TD*%
%TO.C,REF\u002A\u002A*%
X121900000Y-86500000D03*
%TD*%
D30*
%TO.C,R3*%
X128750000Y-74700000D03*
X127100000Y-74700000D03*
%TD*%
D31*
%TO.C,C5*%
X125200000Y-78225000D03*
X125200000Y-79775000D03*
%TD*%
D15*
%TO.C,REF\u002A\u002A*%
X121900000Y-70000000D03*
%TD*%
%LPD*%
M02*
