%TF.GenerationSoftware,KiCad,Pcbnew,8.0.6*%
%TF.CreationDate,2024-11-25T04:34:58+09:00*%
%TF.ProjectId,pointify,706f696e-7469-4667-992e-6b696361645f,rev?*%
%TF.SameCoordinates,Original*%
%TF.FileFunction,Legend,Bot*%
%TF.FilePolarity,Positive*%
%FSLAX46Y46*%
G04 Gerber Fmt 4.6, Leading zero omitted, Abs format (unit mm)*
G04 Created by KiCad (PCBNEW 8.0.6) date 2024-11-25 04:34:58*
%MOMM*%
%LPD*%
G01*
G04 APERTURE LIST*
%ADD10C,0.100000*%
%ADD11C,0.000000*%
%ADD12R,1.700000X1.700000*%
%ADD13O,1.700000X1.700000*%
%ADD14C,2.200000*%
%ADD15C,0.650000*%
%ADD16O,2.100000X1.000000*%
%ADD17O,1.800000X1.000000*%
%ADD18R,1.000000X1.000000*%
%ADD19O,1.000000X1.000000*%
G04 APERTURE END LIST*
D10*
X135419925Y-68521371D02*
X135419925Y-68949942D01*
X135419925Y-68949942D02*
X135448496Y-69035657D01*
X135448496Y-69035657D02*
X135505639Y-69092800D01*
X135505639Y-69092800D02*
X135591353Y-69121371D01*
X135591353Y-69121371D02*
X135648496Y-69121371D01*
X134848496Y-69121371D02*
X135134210Y-69121371D01*
X135134210Y-69121371D02*
X135134210Y-68521371D01*
X134305639Y-69064228D02*
X134334211Y-69092800D01*
X134334211Y-69092800D02*
X134419925Y-69121371D01*
X134419925Y-69121371D02*
X134477068Y-69121371D01*
X134477068Y-69121371D02*
X134562782Y-69092800D01*
X134562782Y-69092800D02*
X134619925Y-69035657D01*
X134619925Y-69035657D02*
X134648496Y-68978514D01*
X134648496Y-68978514D02*
X134677068Y-68864228D01*
X134677068Y-68864228D02*
X134677068Y-68778514D01*
X134677068Y-68778514D02*
X134648496Y-68664228D01*
X134648496Y-68664228D02*
X134619925Y-68607085D01*
X134619925Y-68607085D02*
X134562782Y-68549942D01*
X134562782Y-68549942D02*
X134477068Y-68521371D01*
X134477068Y-68521371D02*
X134419925Y-68521371D01*
X134419925Y-68521371D02*
X134334211Y-68549942D01*
X134334211Y-68549942D02*
X134305639Y-68578514D01*
X133877068Y-68521371D02*
X133877068Y-68949942D01*
X133877068Y-68949942D02*
X133905639Y-69035657D01*
X133905639Y-69035657D02*
X133962782Y-69092800D01*
X133962782Y-69092800D02*
X134048496Y-69121371D01*
X134048496Y-69121371D02*
X134105639Y-69121371D01*
X133305639Y-69121371D02*
X133591353Y-69121371D01*
X133591353Y-69121371D02*
X133591353Y-68521371D01*
X132762782Y-69064228D02*
X132791354Y-69092800D01*
X132791354Y-69092800D02*
X132877068Y-69121371D01*
X132877068Y-69121371D02*
X132934211Y-69121371D01*
X132934211Y-69121371D02*
X133019925Y-69092800D01*
X133019925Y-69092800D02*
X133077068Y-69035657D01*
X133077068Y-69035657D02*
X133105639Y-68978514D01*
X133105639Y-68978514D02*
X133134211Y-68864228D01*
X133134211Y-68864228D02*
X133134211Y-68778514D01*
X133134211Y-68778514D02*
X133105639Y-68664228D01*
X133105639Y-68664228D02*
X133077068Y-68607085D01*
X133077068Y-68607085D02*
X133019925Y-68549942D01*
X133019925Y-68549942D02*
X132934211Y-68521371D01*
X132934211Y-68521371D02*
X132877068Y-68521371D01*
X132877068Y-68521371D02*
X132791354Y-68549942D01*
X132791354Y-68549942D02*
X132762782Y-68578514D01*
X132334211Y-68521371D02*
X132334211Y-68949942D01*
X132334211Y-68949942D02*
X132362782Y-69035657D01*
X132362782Y-69035657D02*
X132419925Y-69092800D01*
X132419925Y-69092800D02*
X132505639Y-69121371D01*
X132505639Y-69121371D02*
X132562782Y-69121371D01*
X131762782Y-69121371D02*
X132048496Y-69121371D01*
X132048496Y-69121371D02*
X132048496Y-68521371D01*
X131219925Y-69064228D02*
X131248497Y-69092800D01*
X131248497Y-69092800D02*
X131334211Y-69121371D01*
X131334211Y-69121371D02*
X131391354Y-69121371D01*
X131391354Y-69121371D02*
X131477068Y-69092800D01*
X131477068Y-69092800D02*
X131534211Y-69035657D01*
X131534211Y-69035657D02*
X131562782Y-68978514D01*
X131562782Y-68978514D02*
X131591354Y-68864228D01*
X131591354Y-68864228D02*
X131591354Y-68778514D01*
X131591354Y-68778514D02*
X131562782Y-68664228D01*
X131562782Y-68664228D02*
X131534211Y-68607085D01*
X131534211Y-68607085D02*
X131477068Y-68549942D01*
X131477068Y-68549942D02*
X131391354Y-68521371D01*
X131391354Y-68521371D02*
X131334211Y-68521371D01*
X131334211Y-68521371D02*
X131248497Y-68549942D01*
X131248497Y-68549942D02*
X131219925Y-68578514D01*
X130791354Y-68521371D02*
X130791354Y-68949942D01*
X130791354Y-68949942D02*
X130819925Y-69035657D01*
X130819925Y-69035657D02*
X130877068Y-69092800D01*
X130877068Y-69092800D02*
X130962782Y-69121371D01*
X130962782Y-69121371D02*
X131019925Y-69121371D01*
X130219925Y-69121371D02*
X130505639Y-69121371D01*
X130505639Y-69121371D02*
X130505639Y-68521371D01*
X129677068Y-69064228D02*
X129705640Y-69092800D01*
X129705640Y-69092800D02*
X129791354Y-69121371D01*
X129791354Y-69121371D02*
X129848497Y-69121371D01*
X129848497Y-69121371D02*
X129934211Y-69092800D01*
X129934211Y-69092800D02*
X129991354Y-69035657D01*
X129991354Y-69035657D02*
X130019925Y-68978514D01*
X130019925Y-68978514D02*
X130048497Y-68864228D01*
X130048497Y-68864228D02*
X130048497Y-68778514D01*
X130048497Y-68778514D02*
X130019925Y-68664228D01*
X130019925Y-68664228D02*
X129991354Y-68607085D01*
X129991354Y-68607085D02*
X129934211Y-68549942D01*
X129934211Y-68549942D02*
X129848497Y-68521371D01*
X129848497Y-68521371D02*
X129791354Y-68521371D01*
X129791354Y-68521371D02*
X129705640Y-68549942D01*
X129705640Y-68549942D02*
X129677068Y-68578514D01*
D11*
%TO.C,G\u002A\u002A\u002A*%
G36*
X132240147Y-77829123D02*
G01*
X132234313Y-77834957D01*
X132228480Y-77829123D01*
X132234313Y-77823289D01*
X132240147Y-77829123D01*
G37*
G36*
X127847702Y-77824131D02*
G01*
X127849303Y-77831067D01*
X127847593Y-77832464D01*
X127833747Y-77831067D01*
X127831922Y-77827558D01*
X127841525Y-77823289D01*
X127847702Y-77824131D01*
G37*
G36*
X127906039Y-77824131D02*
G01*
X127907641Y-77831067D01*
X127905931Y-77832464D01*
X127892084Y-77831067D01*
X127890259Y-77827558D01*
X127899862Y-77823289D01*
X127906039Y-77824131D01*
G37*
G36*
X131441302Y-76954523D02*
G01*
X131490321Y-76978510D01*
X131528906Y-77021720D01*
X131544393Y-77056523D01*
X131550524Y-77111748D01*
X131537767Y-77165571D01*
X131507850Y-77212163D01*
X131462500Y-77245698D01*
X131422132Y-77259691D01*
X131371356Y-77259483D01*
X131317514Y-77238007D01*
X131275717Y-77204604D01*
X131247786Y-77158769D01*
X131238001Y-77107782D01*
X131246360Y-77056601D01*
X131272865Y-77010181D01*
X131317514Y-76973477D01*
X131328129Y-76967910D01*
X131385890Y-76950683D01*
X131441302Y-76954523D01*
G37*
G36*
X128016537Y-79316720D02*
G01*
X128016537Y-79491732D01*
X127848313Y-79491732D01*
X127825728Y-79491669D01*
X127766283Y-79490879D01*
X127715961Y-79489326D01*
X127679499Y-79487190D01*
X127661634Y-79484650D01*
X127650063Y-79473999D01*
X127643179Y-79449648D01*
X127643179Y-79421727D01*
X127447166Y-79421727D01*
X127415331Y-79421643D01*
X127340250Y-79420464D01*
X127286496Y-79417816D01*
X127252615Y-79413602D01*
X127237152Y-79407726D01*
X127230703Y-79393322D01*
X127225198Y-79359705D01*
X127223151Y-79314387D01*
X127223151Y-79235048D01*
X127425086Y-79235048D01*
X127627021Y-79235048D01*
X127647611Y-79188379D01*
X127668202Y-79141709D01*
X127842369Y-79141709D01*
X128016537Y-79141709D01*
X128016537Y-79316720D01*
G37*
G36*
X128016537Y-79876757D02*
G01*
X128016537Y-80051769D01*
X127848313Y-80051769D01*
X127825728Y-80051706D01*
X127766283Y-80050915D01*
X127715961Y-80049362D01*
X127679499Y-80047226D01*
X127661634Y-80044687D01*
X127650063Y-80034036D01*
X127643179Y-80009684D01*
X127643179Y-79981764D01*
X127446261Y-79981764D01*
X127416025Y-79981714D01*
X127347772Y-79980992D01*
X127298665Y-79979220D01*
X127265643Y-79976159D01*
X127245642Y-79971567D01*
X127235600Y-79965205D01*
X127229981Y-79952033D01*
X127225067Y-79918086D01*
X127224343Y-79871865D01*
X127226829Y-79795085D01*
X127426925Y-79795085D01*
X127627021Y-79795085D01*
X127647611Y-79748415D01*
X127668202Y-79701746D01*
X127842369Y-79701746D01*
X128016537Y-79701746D01*
X128016537Y-79876757D01*
G37*
G36*
X130742964Y-78672005D02*
G01*
X130745401Y-78693203D01*
X130744394Y-78733446D01*
X130740882Y-78806501D01*
X130460864Y-78902430D01*
X130398904Y-78923639D01*
X130325765Y-78948629D01*
X130261454Y-78970551D01*
X130209280Y-78988280D01*
X130172557Y-79000688D01*
X130154594Y-79006649D01*
X130153435Y-79007013D01*
X130139354Y-79009802D01*
X130131857Y-79003699D01*
X130128876Y-78983891D01*
X130128342Y-78945564D01*
X130129013Y-78908981D01*
X130132860Y-78885400D01*
X130142470Y-78872516D01*
X130160427Y-78863736D01*
X130169345Y-78860444D01*
X130200320Y-78849473D01*
X130247794Y-78832931D01*
X130308208Y-78812050D01*
X130377999Y-78788065D01*
X130453608Y-78762208D01*
X130499613Y-78746501D01*
X130570304Y-78722323D01*
X130632122Y-78701124D01*
X130681765Y-78684040D01*
X130715927Y-78672207D01*
X130731304Y-78666762D01*
X130736269Y-78665708D01*
X130742964Y-78672005D01*
G37*
G36*
X132381991Y-79176958D02*
G01*
X132396667Y-79204830D01*
X132415619Y-79223627D01*
X132421817Y-79225566D01*
X132449934Y-79229312D01*
X132494513Y-79232320D01*
X132550883Y-79234321D01*
X132614369Y-79235048D01*
X132671937Y-79235231D01*
X132724908Y-79236175D01*
X132761232Y-79238280D01*
X132784605Y-79241936D01*
X132798722Y-79247534D01*
X132807277Y-79255466D01*
X132816544Y-79274392D01*
X132822512Y-79314171D01*
X132818488Y-79357263D01*
X132804676Y-79392969D01*
X132797184Y-79403506D01*
X132788192Y-79411151D01*
X132774124Y-79416288D01*
X132751328Y-79419416D01*
X132716152Y-79421032D01*
X132664945Y-79421637D01*
X132594055Y-79421727D01*
X132402277Y-79421727D01*
X132390075Y-79456730D01*
X132377874Y-79491732D01*
X132204004Y-79491732D01*
X132030133Y-79491732D01*
X132030133Y-79316720D01*
X132030133Y-79141709D01*
X132199918Y-79141709D01*
X132369703Y-79141709D01*
X132381991Y-79176958D01*
G37*
G36*
X129167024Y-80488565D02*
G01*
X129228389Y-80489538D01*
X129289119Y-80491255D01*
X129343707Y-80493675D01*
X129346210Y-80493827D01*
X129356082Y-80495715D01*
X129362737Y-80502260D01*
X129366796Y-80517198D01*
X129368878Y-80544265D01*
X129369602Y-80587195D01*
X129369588Y-80649725D01*
X129369524Y-80667892D01*
X129368530Y-80731423D01*
X129365475Y-80776588D01*
X129359161Y-80807396D01*
X129348393Y-80827860D01*
X129331973Y-80841990D01*
X129308705Y-80853797D01*
X129276619Y-80867989D01*
X129276619Y-81065870D01*
X129276619Y-81263752D01*
X129224194Y-81271614D01*
X129213548Y-81272961D01*
X129169231Y-81274879D01*
X129130854Y-81271800D01*
X129089940Y-81264124D01*
X129089940Y-81066398D01*
X129089940Y-80868673D01*
X129046188Y-80848087D01*
X129002435Y-80827502D01*
X128999204Y-80662313D01*
X128995972Y-80497123D01*
X129028372Y-80491272D01*
X129034181Y-80490530D01*
X129064414Y-80489019D01*
X129110531Y-80488378D01*
X129167024Y-80488565D01*
G37*
G36*
X130851723Y-80488854D02*
G01*
X130876340Y-80489764D01*
X130927074Y-80491624D01*
X130968914Y-80493139D01*
X130994649Y-80494046D01*
X131026734Y-80495131D01*
X131026734Y-80670434D01*
X131026734Y-80845737D01*
X130991732Y-80852738D01*
X130956730Y-80859738D01*
X130956730Y-81056216D01*
X130956683Y-81099244D01*
X130956217Y-81160034D01*
X130954937Y-81202909D01*
X130952468Y-81231343D01*
X130948433Y-81248814D01*
X130942456Y-81258798D01*
X130934162Y-81264771D01*
X130920123Y-81269703D01*
X130885584Y-81274911D01*
X130845126Y-81276379D01*
X130808369Y-81273938D01*
X130784936Y-81267417D01*
X130782061Y-81263906D01*
X130776598Y-81243707D01*
X130772435Y-81205148D01*
X130769428Y-81146577D01*
X130767434Y-81066341D01*
X130764217Y-80874340D01*
X130720496Y-80850996D01*
X130676774Y-80827653D01*
X130676743Y-80662319D01*
X130676711Y-80496985D01*
X130708797Y-80490866D01*
X130718335Y-80489643D01*
X130752463Y-80487969D01*
X130799328Y-80487672D01*
X130851723Y-80488854D01*
G37*
G36*
X132362655Y-78581735D02*
G01*
X132385999Y-78625457D01*
X132409342Y-78669178D01*
X132600778Y-78672393D01*
X132668896Y-78673783D01*
X132722784Y-78675711D01*
X132760090Y-78678475D01*
X132784312Y-78682469D01*
X132798947Y-78688088D01*
X132807495Y-78695728D01*
X132816765Y-78714851D01*
X132822533Y-78754501D01*
X132818430Y-78797422D01*
X132804676Y-78832932D01*
X132797184Y-78843469D01*
X132788192Y-78851114D01*
X132774124Y-78856251D01*
X132751328Y-78859379D01*
X132716152Y-78860996D01*
X132664945Y-78861600D01*
X132594055Y-78861691D01*
X132402277Y-78861691D01*
X132390075Y-78896693D01*
X132377874Y-78931695D01*
X132204004Y-78931695D01*
X132030133Y-78931695D01*
X132027484Y-78852940D01*
X132025726Y-78794471D01*
X132024222Y-78718586D01*
X132024060Y-78658615D01*
X132025239Y-78617018D01*
X132027755Y-78596256D01*
X132030162Y-78593188D01*
X132045630Y-78587838D01*
X132077069Y-78584280D01*
X132126925Y-78582305D01*
X132197643Y-78581704D01*
X132362655Y-78581735D01*
G37*
G36*
X129233977Y-75689441D02*
G01*
X129253249Y-75695568D01*
X129265658Y-75709489D01*
X129272701Y-75734311D01*
X129275877Y-75773140D01*
X129276683Y-75829082D01*
X129276619Y-75905245D01*
X129276619Y-76108177D01*
X129305415Y-76108177D01*
X129327768Y-76113830D01*
X129351618Y-76140262D01*
X129352601Y-76142156D01*
X129360304Y-76165670D01*
X129365464Y-76201973D01*
X129368414Y-76254564D01*
X129369492Y-76326941D01*
X129369959Y-76481534D01*
X129183280Y-76481534D01*
X128996601Y-76481534D01*
X128996601Y-76311523D01*
X128996741Y-76269757D01*
X128998155Y-76207193D01*
X129001901Y-76163104D01*
X129008966Y-76134324D01*
X129020337Y-76117687D01*
X129036999Y-76110027D01*
X129059938Y-76108177D01*
X129089940Y-76108177D01*
X129089940Y-75916618D01*
X129090124Y-75872863D01*
X129091039Y-75811577D01*
X129092593Y-75760528D01*
X129094636Y-75724082D01*
X129097022Y-75706604D01*
X129106460Y-75696170D01*
X129129997Y-75689960D01*
X129171907Y-75688149D01*
X129206341Y-75688002D01*
X129233977Y-75689441D01*
G37*
G36*
X130914087Y-75689441D02*
G01*
X130933360Y-75695568D01*
X130945768Y-75709489D01*
X130952811Y-75734311D01*
X130955987Y-75773140D01*
X130956794Y-75829082D01*
X130956730Y-75905245D01*
X130956730Y-76108177D01*
X130984926Y-76108177D01*
X131004089Y-76111483D01*
X131019007Y-76122761D01*
X131019923Y-76127051D01*
X131021994Y-76151856D01*
X131023776Y-76193548D01*
X131025104Y-76247590D01*
X131025813Y-76309440D01*
X131026734Y-76481534D01*
X130851723Y-76481534D01*
X130676711Y-76481534D01*
X130676711Y-76311523D01*
X130676852Y-76269757D01*
X130678265Y-76207193D01*
X130682011Y-76163104D01*
X130689077Y-76134324D01*
X130700447Y-76117687D01*
X130717109Y-76110027D01*
X130740049Y-76108177D01*
X130770051Y-76108177D01*
X130770051Y-75916618D01*
X130770234Y-75872863D01*
X130771150Y-75811577D01*
X130772703Y-75760528D01*
X130774746Y-75724082D01*
X130777133Y-75706604D01*
X130786570Y-75696170D01*
X130810107Y-75689960D01*
X130852017Y-75688149D01*
X130886452Y-75688002D01*
X130914087Y-75689441D01*
G37*
G36*
X132198004Y-76901593D02*
G01*
X132362655Y-76901625D01*
X132385999Y-76945346D01*
X132409342Y-76989068D01*
X132600778Y-76992282D01*
X132668896Y-76993673D01*
X132722784Y-76995601D01*
X132760090Y-76998365D01*
X132784312Y-77002359D01*
X132798947Y-77007978D01*
X132807495Y-77015617D01*
X132816765Y-77034741D01*
X132822533Y-77074391D01*
X132818430Y-77117312D01*
X132804676Y-77152822D01*
X132804133Y-77153650D01*
X132796665Y-77163965D01*
X132787519Y-77171365D01*
X132773086Y-77176333D01*
X132749755Y-77179355D01*
X132713918Y-77180914D01*
X132661965Y-77181494D01*
X132590287Y-77181580D01*
X132394741Y-77181580D01*
X132388161Y-77214480D01*
X132387207Y-77218567D01*
X132374132Y-77241743D01*
X132347699Y-77258118D01*
X132305513Y-77268313D01*
X132245180Y-77272952D01*
X132164309Y-77272655D01*
X132035967Y-77269086D01*
X132028268Y-77169913D01*
X132028026Y-77166707D01*
X132025200Y-77105797D01*
X132024813Y-77041119D01*
X132026961Y-76986151D01*
X132033352Y-76901562D01*
X132198004Y-76901593D01*
G37*
G36*
X130746716Y-79104798D02*
G01*
X130746716Y-79327291D01*
X130702963Y-79339442D01*
X130686173Y-79344124D01*
X130661746Y-79349615D01*
X130645676Y-79347914D01*
X130636217Y-79335793D01*
X130631622Y-79310024D01*
X130630146Y-79267380D01*
X130630042Y-79204632D01*
X130629953Y-79162576D01*
X130629236Y-79115145D01*
X130627360Y-79085238D01*
X130623811Y-79069341D01*
X130618070Y-79063939D01*
X130609624Y-79065516D01*
X130600861Y-79068812D01*
X130569126Y-79080117D01*
X130523503Y-79095913D01*
X130467989Y-79114861D01*
X130406579Y-79135624D01*
X130343270Y-79156863D01*
X130282059Y-79177242D01*
X130226941Y-79195421D01*
X130181913Y-79210062D01*
X130150972Y-79219828D01*
X130138114Y-79223381D01*
X130133791Y-79216298D01*
X130129858Y-79191550D01*
X130128342Y-79155164D01*
X130128342Y-79086946D01*
X130411277Y-78990514D01*
X130475919Y-78968561D01*
X130549231Y-78943867D01*
X130613631Y-78922394D01*
X130665830Y-78905232D01*
X130702538Y-78893469D01*
X130720464Y-78888193D01*
X130746716Y-78882305D01*
X130746716Y-79104798D01*
G37*
G36*
X131395571Y-80489533D02*
G01*
X131455933Y-80490489D01*
X131516554Y-80492125D01*
X131572187Y-80494399D01*
X131576579Y-80497524D01*
X131581363Y-80513391D01*
X131584512Y-80544953D01*
X131586242Y-80594750D01*
X131586771Y-80665322D01*
X131586771Y-80835514D01*
X131551769Y-80848725D01*
X131516766Y-80861937D01*
X131516766Y-81055853D01*
X131516766Y-81249769D01*
X131487049Y-81263309D01*
X131459392Y-81271937D01*
X131407889Y-81276340D01*
X131356615Y-81269567D01*
X131347926Y-81266616D01*
X131340731Y-81260553D01*
X131335710Y-81248269D01*
X131332368Y-81226341D01*
X131330208Y-81191347D01*
X131328733Y-81139865D01*
X131327447Y-81068473D01*
X131324254Y-80874341D01*
X131280532Y-80850997D01*
X131236811Y-80827653D01*
X131236780Y-80662657D01*
X131236785Y-80635599D01*
X131237086Y-80578448D01*
X131238255Y-80539524D01*
X131240862Y-80515119D01*
X131245475Y-80501522D01*
X131252664Y-80495026D01*
X131263000Y-80491922D01*
X131268524Y-80491165D01*
X131296619Y-80489829D01*
X131340718Y-80489299D01*
X131395571Y-80489533D01*
G37*
G36*
X132198070Y-78021667D02*
G01*
X132362655Y-78021698D01*
X132385999Y-78065420D01*
X132409342Y-78109141D01*
X132600778Y-78112356D01*
X132668896Y-78113746D01*
X132722784Y-78115675D01*
X132760090Y-78118438D01*
X132784312Y-78122432D01*
X132798947Y-78128052D01*
X132807495Y-78135691D01*
X132819423Y-78165287D01*
X132822857Y-78206600D01*
X132817421Y-78247863D01*
X132803425Y-78278186D01*
X132799598Y-78282369D01*
X132789558Y-78289972D01*
X132774643Y-78295272D01*
X132751161Y-78298680D01*
X132715420Y-78300606D01*
X132663730Y-78301460D01*
X132592397Y-78301654D01*
X132401464Y-78301654D01*
X132388474Y-78336069D01*
X132375484Y-78370484D01*
X132211559Y-78373988D01*
X132191271Y-78374367D01*
X132133742Y-78374805D01*
X132086073Y-78374240D01*
X132052754Y-78372761D01*
X132038270Y-78370461D01*
X132036872Y-78368719D01*
X132031718Y-78348651D01*
X132027710Y-78311756D01*
X132025058Y-78263258D01*
X132023975Y-78208382D01*
X132024669Y-78152351D01*
X132027354Y-78100391D01*
X132033484Y-78021635D01*
X132198070Y-78021667D01*
G37*
G36*
X132362655Y-77461662D02*
G01*
X132385999Y-77505383D01*
X132409342Y-77549104D01*
X132600778Y-77552319D01*
X132668896Y-77553710D01*
X132722784Y-77555638D01*
X132760090Y-77558402D01*
X132784312Y-77562396D01*
X132798947Y-77568015D01*
X132807495Y-77575654D01*
X132814231Y-77587863D01*
X132822106Y-77625486D01*
X132820377Y-77669608D01*
X132808934Y-77710031D01*
X132794350Y-77741435D01*
X132598314Y-77741526D01*
X132402277Y-77741617D01*
X132390075Y-77776619D01*
X132387728Y-77783661D01*
X132383234Y-77796078D01*
X132376787Y-77804730D01*
X132364824Y-77810324D01*
X132343783Y-77813570D01*
X132310101Y-77815177D01*
X132260215Y-77815852D01*
X132190562Y-77816306D01*
X132030137Y-77817455D01*
X132028040Y-77718282D01*
X132027923Y-77712742D01*
X132026351Y-77633564D01*
X132025434Y-77574421D01*
X132025177Y-77532213D01*
X132025584Y-77503838D01*
X132026662Y-77486195D01*
X132028413Y-77476183D01*
X132030859Y-77472964D01*
X132046226Y-77467676D01*
X132077501Y-77464165D01*
X132127151Y-77462221D01*
X132197643Y-77461630D01*
X132362655Y-77461662D01*
G37*
G36*
X129810787Y-75693096D02*
G01*
X129824484Y-75706654D01*
X129832275Y-75731548D01*
X129835805Y-75770775D01*
X129836717Y-75827333D01*
X129836656Y-75904219D01*
X129836656Y-76108177D01*
X129865414Y-76108177D01*
X129867731Y-76108239D01*
X129894898Y-76119032D01*
X129911628Y-76142533D01*
X129911657Y-76170322D01*
X129910033Y-76179300D01*
X129917533Y-76195191D01*
X129921288Y-76202251D01*
X129925977Y-76230794D01*
X129928954Y-76278327D01*
X129929996Y-76342214D01*
X129929996Y-76481534D01*
X129743317Y-76481534D01*
X129556638Y-76481534D01*
X129556638Y-76310726D01*
X129556794Y-76266660D01*
X129558269Y-76205293D01*
X129562182Y-76162216D01*
X129569595Y-76134216D01*
X129581571Y-76118080D01*
X129599170Y-76110595D01*
X129623456Y-76108548D01*
X129625867Y-76108501D01*
X129634545Y-76107232D01*
X129640854Y-76101846D01*
X129645244Y-76089142D01*
X129648166Y-76065916D01*
X129650070Y-76028965D01*
X129651406Y-75975087D01*
X129652625Y-75901080D01*
X129655811Y-75693983D01*
X129719358Y-75690377D01*
X129759098Y-75687998D01*
X129789539Y-75687876D01*
X129810787Y-75693096D01*
G37*
G36*
X130311803Y-80487652D02*
G01*
X130364650Y-80489254D01*
X130410966Y-80491563D01*
X130445151Y-80494452D01*
X130461604Y-80497792D01*
X130462840Y-80499567D01*
X130466357Y-80519393D01*
X130468666Y-80557616D01*
X130469608Y-80610433D01*
X130469024Y-80674040D01*
X130465516Y-80843559D01*
X130431105Y-80851117D01*
X130396693Y-80858676D01*
X130396693Y-81056384D01*
X130396693Y-81254092D01*
X130366765Y-81265470D01*
X130347097Y-81270911D01*
X130304788Y-81276054D01*
X130261296Y-81275795D01*
X130228469Y-81269767D01*
X130222475Y-81265471D01*
X130217143Y-81253983D01*
X130213530Y-81232446D01*
X130211319Y-81197540D01*
X130210193Y-81145944D01*
X130209835Y-81074338D01*
X130209588Y-81032786D01*
X130208434Y-80972755D01*
X130206510Y-80923317D01*
X130203998Y-80888719D01*
X130201085Y-80873207D01*
X130200823Y-80872831D01*
X130184332Y-80859045D01*
X130157511Y-80843898D01*
X130122508Y-80827372D01*
X130119277Y-80662248D01*
X130116046Y-80497123D01*
X130148446Y-80490606D01*
X130170090Y-80488380D01*
X130208923Y-80487086D01*
X130258027Y-80486887D01*
X130311803Y-80487652D01*
G37*
G36*
X128013916Y-77085324D02*
G01*
X128010703Y-77269086D01*
X127876528Y-77272441D01*
X127799496Y-77272359D01*
X127729821Y-77266532D01*
X127681115Y-77254314D01*
X127652520Y-77235475D01*
X127643179Y-77209784D01*
X127643179Y-77181580D01*
X127447166Y-77181580D01*
X127415331Y-77181496D01*
X127340250Y-77180317D01*
X127286496Y-77177669D01*
X127252615Y-77173455D01*
X127237152Y-77167579D01*
X127230187Y-77151254D01*
X127225080Y-77118636D01*
X127223129Y-77079070D01*
X127224719Y-77041122D01*
X127230233Y-77013357D01*
X127235600Y-77006583D01*
X127248075Y-77001590D01*
X127270860Y-76998221D01*
X127307210Y-76996180D01*
X127360381Y-76995172D01*
X127433627Y-76994901D01*
X127495146Y-76994822D01*
X127550196Y-76994286D01*
X127588178Y-76992884D01*
X127612506Y-76990205D01*
X127626594Y-76985841D01*
X127633857Y-76979381D01*
X127637711Y-76970415D01*
X127647442Y-76950253D01*
X127667666Y-76923745D01*
X127674752Y-76917568D01*
X127688353Y-76910505D01*
X127708942Y-76905861D01*
X127740603Y-76903147D01*
X127787424Y-76901877D01*
X127853489Y-76901562D01*
X128017129Y-76901562D01*
X128013916Y-77085324D01*
G37*
G36*
X128016537Y-78755304D02*
G01*
X128016537Y-78928936D01*
X127861943Y-78934117D01*
X127790857Y-78935740D01*
X127730503Y-78934715D01*
X127688255Y-78930148D01*
X127661415Y-78921490D01*
X127647289Y-78908196D01*
X127643179Y-78889718D01*
X127643179Y-78861691D01*
X127447166Y-78861691D01*
X127415331Y-78861607D01*
X127340250Y-78860427D01*
X127286496Y-78857779D01*
X127252615Y-78853566D01*
X127237152Y-78847690D01*
X127230187Y-78831365D01*
X127225080Y-78798746D01*
X127223129Y-78759180D01*
X127224719Y-78721232D01*
X127230233Y-78693467D01*
X127235600Y-78686694D01*
X127248075Y-78681700D01*
X127270860Y-78678331D01*
X127307210Y-78676290D01*
X127360381Y-78675282D01*
X127433627Y-78675012D01*
X127505313Y-78674915D01*
X127557272Y-78674334D01*
X127592729Y-78672827D01*
X127615104Y-78669956D01*
X127627817Y-78665280D01*
X127634289Y-78658362D01*
X127637939Y-78648760D01*
X127642950Y-78633476D01*
X127652947Y-78612746D01*
X127667754Y-78598423D01*
X127691077Y-78589330D01*
X127726617Y-78584291D01*
X127778080Y-78582131D01*
X127849167Y-78581672D01*
X128016537Y-78581672D01*
X128016537Y-78755304D01*
G37*
G36*
X129708947Y-80487845D02*
G01*
X129764558Y-80488942D01*
X129818576Y-80490841D01*
X129865566Y-80493404D01*
X129900093Y-80496494D01*
X129916723Y-80499973D01*
X129920136Y-80506248D01*
X129924669Y-80531394D01*
X129927899Y-80570408D01*
X129929798Y-80617982D01*
X129930337Y-80668809D01*
X129929489Y-80717580D01*
X129927223Y-80758988D01*
X129923513Y-80787726D01*
X129918328Y-80798484D01*
X129912079Y-80801737D01*
X129906661Y-80819261D01*
X129897880Y-80837060D01*
X129871946Y-80853142D01*
X129837231Y-80866245D01*
X129834026Y-81062755D01*
X129830822Y-81259265D01*
X129782137Y-81269525D01*
X129775118Y-81270849D01*
X129731378Y-81274555D01*
X129691715Y-81271954D01*
X129649977Y-81264124D01*
X129649977Y-81065368D01*
X129649977Y-80866612D01*
X129603307Y-80848279D01*
X129556638Y-80829947D01*
X129556638Y-80663804D01*
X129556650Y-80635359D01*
X129556972Y-80578325D01*
X129558162Y-80539453D01*
X129560784Y-80515039D01*
X129565403Y-80501378D01*
X129572583Y-80494765D01*
X129582889Y-80491497D01*
X129586917Y-80490752D01*
X129614692Y-80488612D01*
X129657180Y-80487690D01*
X129708947Y-80487845D01*
G37*
G36*
X131474124Y-75689441D02*
G01*
X131493396Y-75695568D01*
X131505805Y-75709489D01*
X131512848Y-75734311D01*
X131516024Y-75773140D01*
X131516830Y-75829082D01*
X131516766Y-75905245D01*
X131516766Y-76108177D01*
X131544963Y-76108177D01*
X131564125Y-76111483D01*
X131579044Y-76122761D01*
X131579960Y-76127051D01*
X131582031Y-76151856D01*
X131583813Y-76193548D01*
X131585141Y-76247590D01*
X131585850Y-76309440D01*
X131586771Y-76481534D01*
X131411759Y-76481534D01*
X131236748Y-76481534D01*
X131236748Y-76308494D01*
X131236747Y-76301556D01*
X131236855Y-76234835D01*
X131238108Y-76187306D01*
X131241837Y-76155164D01*
X131249371Y-76134604D01*
X131262042Y-76121821D01*
X131281179Y-76113009D01*
X131308113Y-76104364D01*
X131314594Y-76100158D01*
X131320031Y-76088918D01*
X131323850Y-76067598D01*
X131326411Y-76032883D01*
X131328073Y-75981461D01*
X131329195Y-75910018D01*
X131329826Y-75868920D01*
X131331336Y-75808168D01*
X131333296Y-75757670D01*
X131335523Y-75721785D01*
X131337833Y-75704875D01*
X131344215Y-75697490D01*
X131368224Y-75690367D01*
X131412054Y-75688149D01*
X131446488Y-75688002D01*
X131474124Y-75689441D01*
G37*
G36*
X129781401Y-77484841D02*
G01*
X129784113Y-77497198D01*
X129786470Y-77529090D01*
X129788329Y-77576926D01*
X129789548Y-77637115D01*
X129789986Y-77706066D01*
X129789986Y-77927199D01*
X129746234Y-77939350D01*
X129729444Y-77944033D01*
X129705017Y-77949523D01*
X129688947Y-77947822D01*
X129679488Y-77935701D01*
X129674893Y-77909932D01*
X129673416Y-77867288D01*
X129673312Y-77804540D01*
X129673223Y-77762484D01*
X129672506Y-77715053D01*
X129670631Y-77685146D01*
X129667081Y-77669249D01*
X129661341Y-77663847D01*
X129652894Y-77665424D01*
X129644132Y-77668720D01*
X129612397Y-77680025D01*
X129566774Y-77695821D01*
X129511259Y-77714769D01*
X129449850Y-77735532D01*
X129386541Y-77756772D01*
X129325329Y-77777150D01*
X129270212Y-77795329D01*
X129225184Y-77809970D01*
X129194243Y-77819736D01*
X129181385Y-77823289D01*
X129177056Y-77816180D01*
X129173127Y-77791405D01*
X129171612Y-77754996D01*
X129171612Y-77686703D01*
X129472049Y-77585684D01*
X129475202Y-77584624D01*
X129554433Y-77558101D01*
X129626305Y-77534249D01*
X129687871Y-77514030D01*
X129736180Y-77498408D01*
X129768285Y-77488343D01*
X129781236Y-77484799D01*
X129781401Y-77484841D01*
G37*
G36*
X128016537Y-78196647D02*
G01*
X128016227Y-78254982D01*
X128014837Y-78309843D01*
X128012135Y-78345922D01*
X128007910Y-78365751D01*
X128001952Y-78371861D01*
X127962895Y-78372398D01*
X127869912Y-78373492D01*
X127796955Y-78373797D01*
X127741598Y-78373028D01*
X127701415Y-78370903D01*
X127673979Y-78367139D01*
X127656864Y-78361453D01*
X127647644Y-78353563D01*
X127643891Y-78343185D01*
X127643179Y-78330036D01*
X127643179Y-78301654D01*
X127446261Y-78301654D01*
X127417655Y-78301609D01*
X127348872Y-78300899D01*
X127299325Y-78299138D01*
X127265969Y-78296088D01*
X127245764Y-78291512D01*
X127235664Y-78285171D01*
X127230614Y-78274198D01*
X127225669Y-78241182D01*
X127225485Y-78194749D01*
X127228985Y-78120809D01*
X127429548Y-78117619D01*
X127430378Y-78117606D01*
X127502907Y-78116343D01*
X127555516Y-78114901D01*
X127591584Y-78112807D01*
X127614490Y-78109588D01*
X127627612Y-78104770D01*
X127634331Y-78097882D01*
X127638025Y-78088451D01*
X127642971Y-78073361D01*
X127652947Y-78052675D01*
X127667743Y-78038377D01*
X127691062Y-78029296D01*
X127726604Y-78024259D01*
X127778072Y-78022096D01*
X127849167Y-78021635D01*
X128016537Y-78021635D01*
X128016537Y-78196647D01*
G37*
G36*
X128649798Y-75689729D02*
G01*
X128683512Y-75694534D01*
X128702582Y-75702150D01*
X128704850Y-75705592D01*
X128710128Y-75727384D01*
X128713779Y-75768106D01*
X128715898Y-75829214D01*
X128716583Y-75912164D01*
X128716583Y-76108177D01*
X128745379Y-76108177D01*
X128767731Y-76113830D01*
X128791581Y-76140262D01*
X128792564Y-76142156D01*
X128800267Y-76165670D01*
X128805427Y-76201973D01*
X128808378Y-76254564D01*
X128809455Y-76326941D01*
X128809922Y-76481534D01*
X128623243Y-76481534D01*
X128436564Y-76481534D01*
X128436564Y-76310726D01*
X128436723Y-76266253D01*
X128438206Y-76205006D01*
X128442136Y-76162028D01*
X128449579Y-76134108D01*
X128461602Y-76118030D01*
X128479271Y-76110581D01*
X128503652Y-76108548D01*
X128505878Y-76108510D01*
X128514760Y-76107405D01*
X128521128Y-76102382D01*
X128525402Y-76090207D01*
X128527998Y-76067641D01*
X128529335Y-76031450D01*
X128529831Y-75978397D01*
X128529904Y-75905245D01*
X128529906Y-75896884D01*
X128530220Y-75824419D01*
X128531263Y-75771765D01*
X128533317Y-75735722D01*
X128536664Y-75713087D01*
X128541584Y-75700657D01*
X128548359Y-75695231D01*
X128572701Y-75690090D01*
X128610006Y-75688120D01*
X128649798Y-75689729D01*
G37*
G36*
X129783939Y-79230175D02*
G01*
X129788302Y-79254631D01*
X129789986Y-79290763D01*
X129789986Y-79358144D01*
X129606224Y-79420017D01*
X129569858Y-79432287D01*
X129502760Y-79455051D01*
X129440892Y-79476188D01*
X129389886Y-79493773D01*
X129355375Y-79505875D01*
X129288287Y-79529861D01*
X129288287Y-79603979D01*
X129288287Y-79678098D01*
X129246026Y-79695755D01*
X129245686Y-79695898D01*
X129220409Y-79706367D01*
X129201648Y-79711891D01*
X129188432Y-79709843D01*
X129179792Y-79697595D01*
X129174760Y-79672521D01*
X129172365Y-79631995D01*
X129171639Y-79573389D01*
X129171612Y-79494076D01*
X129171612Y-79274738D01*
X129210360Y-79260727D01*
X129228286Y-79254446D01*
X129260972Y-79246457D01*
X129279007Y-79252280D01*
X129286682Y-79275067D01*
X129288287Y-79317969D01*
X129288720Y-79350852D01*
X129291273Y-79374475D01*
X129297443Y-79382990D01*
X129308705Y-79380955D01*
X129317344Y-79377633D01*
X129348314Y-79366495D01*
X129393384Y-79350815D01*
X129448536Y-79331939D01*
X129509749Y-79311213D01*
X129573006Y-79289984D01*
X129634286Y-79269596D01*
X129689570Y-79251396D01*
X129734840Y-79236729D01*
X129766075Y-79226942D01*
X129779258Y-79223381D01*
X129783939Y-79230175D01*
G37*
G36*
X130743516Y-76996304D02*
G01*
X130746148Y-77017234D01*
X130746716Y-77057238D01*
X130746716Y-77132062D01*
X130682545Y-77170954D01*
X130618374Y-77209846D01*
X130618374Y-77296230D01*
X130618374Y-77382615D01*
X130682545Y-77374598D01*
X130746716Y-77366580D01*
X130746716Y-77440855D01*
X130746716Y-77515129D01*
X130487115Y-77529422D01*
X130457959Y-77531008D01*
X130380510Y-77535047D01*
X130309523Y-77538506D01*
X130249206Y-77541194D01*
X130203768Y-77542920D01*
X130177417Y-77543492D01*
X130127320Y-77543271D01*
X130130748Y-77458736D01*
X130133004Y-77403092D01*
X130309187Y-77403092D01*
X130338356Y-77397956D01*
X130354700Y-77395427D01*
X130391986Y-77390504D01*
X130434612Y-77385534D01*
X130501700Y-77378248D01*
X130501700Y-77331742D01*
X130501700Y-77285236D01*
X130433623Y-77323831D01*
X130399230Y-77343818D01*
X130362411Y-77366270D01*
X130337367Y-77382759D01*
X130309187Y-77403092D01*
X130133004Y-77403092D01*
X130134176Y-77374201D01*
X130420028Y-77190678D01*
X130436649Y-77180008D01*
X130501700Y-77138276D01*
X130509504Y-77133269D01*
X130576091Y-77090598D01*
X130633735Y-77053705D01*
X130679767Y-77024299D01*
X130711512Y-77004089D01*
X130726298Y-76994784D01*
X130726504Y-76994660D01*
X130737432Y-76990196D01*
X130743516Y-76996304D01*
G37*
G36*
X130353762Y-75689405D02*
G01*
X130373156Y-75695460D01*
X130385647Y-75709281D01*
X130392739Y-75733981D01*
X130395940Y-75772671D01*
X130396756Y-75828463D01*
X130396693Y-75904470D01*
X130396693Y-76106627D01*
X130428778Y-76110318D01*
X130460864Y-76114010D01*
X130467301Y-76277354D01*
X130468021Y-76295851D01*
X130470185Y-76354660D01*
X130471834Y-76404511D01*
X130472819Y-76440620D01*
X130472988Y-76458200D01*
X130471934Y-76462100D01*
X130463933Y-76467978D01*
X130445381Y-76472228D01*
X130413081Y-76475221D01*
X130363838Y-76477329D01*
X130294456Y-76478921D01*
X130116674Y-76482142D01*
X130116674Y-76311030D01*
X130116837Y-76266021D01*
X130118328Y-76204853D01*
X130122265Y-76161936D01*
X130129713Y-76134058D01*
X130141736Y-76118009D01*
X130159397Y-76110576D01*
X130183762Y-76108548D01*
X130193370Y-76107828D01*
X130200354Y-76103760D01*
X130205047Y-76093013D01*
X130207903Y-76072257D01*
X130209380Y-76038160D01*
X130209931Y-75987391D01*
X130210014Y-75916618D01*
X130210197Y-75872863D01*
X130211113Y-75811577D01*
X130212666Y-75760528D01*
X130214709Y-75724082D01*
X130217096Y-75706604D01*
X130226533Y-75696170D01*
X130250071Y-75689960D01*
X130291980Y-75688149D01*
X130325956Y-75688003D01*
X130353762Y-75689405D01*
G37*
G36*
X128599383Y-80488181D02*
G01*
X128661647Y-80489214D01*
X128724853Y-80491068D01*
X128783670Y-80493695D01*
X128786839Y-80493893D01*
X128796438Y-80495927D01*
X128802922Y-80502798D01*
X128806901Y-80518205D01*
X128808987Y-80545848D01*
X128809790Y-80589427D01*
X128809922Y-80652641D01*
X128809806Y-80696855D01*
X128808924Y-80748402D01*
X128806708Y-80783604D01*
X128802611Y-80806695D01*
X128796086Y-80821910D01*
X128786587Y-80833487D01*
X128765317Y-80848903D01*
X128739917Y-80856821D01*
X128731779Y-80857749D01*
X128725606Y-80862735D01*
X128721379Y-80874994D01*
X128718730Y-80897738D01*
X128717292Y-80934179D01*
X128716699Y-80987529D01*
X128716583Y-81061002D01*
X128716582Y-81078934D01*
X128716449Y-81147680D01*
X128715801Y-81197050D01*
X128714223Y-81230295D01*
X128711301Y-81250664D01*
X128706621Y-81261406D01*
X128699769Y-81265771D01*
X128690331Y-81267008D01*
X128664359Y-81269024D01*
X128629077Y-81272112D01*
X128598808Y-81272792D01*
X128561989Y-81269359D01*
X128529904Y-81263328D01*
X128529904Y-81064970D01*
X128529904Y-80866612D01*
X128483234Y-80848279D01*
X128436564Y-80829947D01*
X128436564Y-80663466D01*
X128436564Y-80496985D01*
X128468650Y-80490929D01*
X128471574Y-80490479D01*
X128499015Y-80488767D01*
X128543395Y-80488017D01*
X128599383Y-80488181D01*
G37*
G36*
X128016537Y-77642679D02*
G01*
X128016537Y-77823760D01*
X127903864Y-77815840D01*
X127855727Y-77812985D01*
X127819559Y-77812554D01*
X127801696Y-77815325D01*
X127799545Y-77821438D01*
X127800160Y-77822513D01*
X127797233Y-77832379D01*
X127776579Y-77834512D01*
X127742116Y-77829107D01*
X127701574Y-77817455D01*
X127771521Y-77817455D01*
X127777354Y-77823289D01*
X127783188Y-77817455D01*
X127777354Y-77811622D01*
X127771521Y-77817455D01*
X127701574Y-77817455D01*
X127697761Y-77816359D01*
X127696790Y-77816027D01*
X127663383Y-77802408D01*
X127647324Y-77788510D01*
X127643179Y-77769689D01*
X127643179Y-77741617D01*
X127446261Y-77741617D01*
X127417655Y-77741572D01*
X127348872Y-77740862D01*
X127299325Y-77739101D01*
X127265969Y-77736051D01*
X127245764Y-77731475D01*
X127235664Y-77725135D01*
X127230614Y-77714161D01*
X127225669Y-77681146D01*
X127225485Y-77634712D01*
X127228985Y-77560772D01*
X127429548Y-77557583D01*
X127430378Y-77557569D01*
X127502907Y-77556307D01*
X127555516Y-77554865D01*
X127591584Y-77552770D01*
X127614490Y-77549551D01*
X127627612Y-77544733D01*
X127634331Y-77537845D01*
X127638025Y-77528414D01*
X127642971Y-77513324D01*
X127652947Y-77492638D01*
X127667743Y-77478340D01*
X127691062Y-77469259D01*
X127726604Y-77464222D01*
X127777354Y-77462089D01*
X127778072Y-77462059D01*
X127849167Y-77461599D01*
X128016537Y-77461599D01*
X128016537Y-77642679D01*
G37*
G36*
X129786268Y-78555474D02*
G01*
X129788675Y-78576823D01*
X129787665Y-78617223D01*
X129784153Y-78690730D01*
X129661645Y-78732830D01*
X129539137Y-78774929D01*
X129535830Y-78892453D01*
X129535375Y-78908240D01*
X129533480Y-78956486D01*
X129530499Y-78987370D01*
X129525247Y-79005641D01*
X129516541Y-79016048D01*
X129503196Y-79023339D01*
X129479124Y-79031889D01*
X129451082Y-79036702D01*
X129442678Y-79035792D01*
X129434931Y-79029387D01*
X129430598Y-79012979D01*
X129428710Y-78982125D01*
X129428296Y-78932384D01*
X129428097Y-78910248D01*
X129426412Y-78867025D01*
X129423382Y-78835945D01*
X129419456Y-78822602D01*
X129411805Y-78822034D01*
X129386716Y-78826874D01*
X129352369Y-78837236D01*
X129294121Y-78857332D01*
X129288287Y-79008146D01*
X129286625Y-79050861D01*
X129283760Y-79102051D01*
X129278831Y-79136735D01*
X129269806Y-79159080D01*
X129254656Y-79173252D01*
X129231352Y-79183415D01*
X129197864Y-79193736D01*
X129171612Y-79201619D01*
X129171612Y-78980567D01*
X129171612Y-78759515D01*
X129203698Y-78747062D01*
X129212615Y-78743770D01*
X129243590Y-78732799D01*
X129291065Y-78716256D01*
X129351478Y-78695376D01*
X129421270Y-78671391D01*
X129496878Y-78645533D01*
X129542884Y-78629827D01*
X129613574Y-78605648D01*
X129675393Y-78584450D01*
X129725036Y-78567366D01*
X129759198Y-78555533D01*
X129774575Y-78550087D01*
X129779635Y-78549040D01*
X129786268Y-78555474D01*
G37*
G36*
X130744505Y-79383875D02*
G01*
X130745349Y-79410225D01*
X130744356Y-79447979D01*
X130740882Y-79520900D01*
X130679628Y-79560391D01*
X130618374Y-79599882D01*
X130618374Y-79679982D01*
X130618374Y-79760083D01*
X130682545Y-79760083D01*
X130746716Y-79760083D01*
X130746716Y-79834646D01*
X130746716Y-79909210D01*
X130516284Y-79916597D01*
X130441458Y-79919006D01*
X130366923Y-79921425D01*
X130300016Y-79923614D01*
X130245969Y-79925404D01*
X130210014Y-79926622D01*
X130134176Y-79929261D01*
X130130897Y-79847589D01*
X130128173Y-79779739D01*
X130325292Y-79779739D01*
X130332391Y-79782773D01*
X130351312Y-79783331D01*
X130361064Y-79783192D01*
X130403654Y-79780681D01*
X130447568Y-79775998D01*
X130473226Y-79772125D01*
X130493161Y-79765181D01*
X130500594Y-79750968D01*
X130501700Y-79723495D01*
X130501609Y-79714478D01*
X130500063Y-79688751D01*
X130497209Y-79678411D01*
X130493919Y-79679720D01*
X130474447Y-79689819D01*
X130441863Y-79707724D01*
X130400952Y-79730828D01*
X130395643Y-79733861D01*
X130354846Y-79757474D01*
X130332087Y-79772036D01*
X130325292Y-79779739D01*
X130128173Y-79779739D01*
X130127618Y-79765917D01*
X130346745Y-79626587D01*
X130363145Y-79616154D01*
X130433466Y-79571321D01*
X130497209Y-79530546D01*
X130501899Y-79527546D01*
X130563988Y-79487688D01*
X130615279Y-79454606D01*
X130651316Y-79431158D01*
X130668358Y-79420041D01*
X130704476Y-79397011D01*
X130730711Y-79381036D01*
X130742295Y-79375058D01*
X130744505Y-79383875D01*
G37*
G36*
X132217501Y-79701749D02*
G01*
X132281555Y-79702025D01*
X132326238Y-79703046D01*
X132354995Y-79705232D01*
X132371270Y-79709002D01*
X132378509Y-79714777D01*
X132380156Y-79722977D01*
X132380170Y-79723633D01*
X132389054Y-79745918D01*
X132409437Y-79769667D01*
X132413137Y-79772813D01*
X132425899Y-79781705D01*
X132441626Y-79787800D01*
X132464392Y-79791570D01*
X132498270Y-79793492D01*
X132547332Y-79794039D01*
X132615652Y-79793685D01*
X132682060Y-79793380D01*
X132731800Y-79793984D01*
X132765536Y-79795905D01*
X132787001Y-79799526D01*
X132799929Y-79805229D01*
X132808052Y-79813396D01*
X132817304Y-79833136D01*
X132822924Y-79873557D01*
X132818628Y-79917090D01*
X132804676Y-79953006D01*
X132797184Y-79963543D01*
X132788192Y-79971188D01*
X132774124Y-79976325D01*
X132751328Y-79979452D01*
X132716152Y-79981069D01*
X132664945Y-79981673D01*
X132594055Y-79981764D01*
X132402277Y-79981764D01*
X132390075Y-80016766D01*
X132377874Y-80051769D01*
X132215671Y-80051769D01*
X132196851Y-80051769D01*
X132139551Y-80051778D01*
X132092099Y-80051797D01*
X132058989Y-80051822D01*
X132044718Y-80051853D01*
X132042410Y-80046048D01*
X132038997Y-80021464D01*
X132035541Y-79982228D01*
X132032296Y-79933368D01*
X132029514Y-79879910D01*
X132027448Y-79826883D01*
X132026350Y-79779315D01*
X132026474Y-79742234D01*
X132028072Y-79720667D01*
X132030552Y-79715007D01*
X132039554Y-79709260D01*
X132058171Y-79705426D01*
X132089831Y-79703138D01*
X132137965Y-79702033D01*
X132206000Y-79701746D01*
X132217501Y-79701749D01*
G37*
G36*
X129707163Y-78033859D02*
G01*
X129727799Y-78044210D01*
X129754089Y-78063509D01*
X129789986Y-78093714D01*
X129789986Y-78243306D01*
X129789986Y-78392898D01*
X129744472Y-78450477D01*
X129698959Y-78508057D01*
X129455704Y-78590683D01*
X129426241Y-78600698D01*
X129356292Y-78624534D01*
X129294380Y-78645715D01*
X129244022Y-78663031D01*
X129208734Y-78675276D01*
X129192030Y-78681242D01*
X129182945Y-78683424D01*
X129175640Y-78677651D01*
X129172367Y-78657767D01*
X129171612Y-78619171D01*
X129171666Y-78608888D01*
X129173803Y-78571530D01*
X129180110Y-78550703D01*
X129192030Y-78540872D01*
X129207622Y-78535166D01*
X129242022Y-78523095D01*
X129290934Y-78506170D01*
X129350441Y-78485746D01*
X129416629Y-78463178D01*
X129478012Y-78441946D01*
X129539255Y-78419978D01*
X129590559Y-78400747D01*
X129627851Y-78385783D01*
X129647060Y-78376615D01*
X129660222Y-78365720D01*
X129668606Y-78349362D01*
X129672414Y-78322226D01*
X129673312Y-78278050D01*
X129673304Y-78270974D01*
X129672468Y-78230946D01*
X129669223Y-78208553D01*
X129662116Y-78198789D01*
X129649697Y-78196647D01*
X129648165Y-78196749D01*
X129626972Y-78201545D01*
X129588120Y-78212673D01*
X129535367Y-78228977D01*
X129472471Y-78249300D01*
X129403194Y-78272485D01*
X129388613Y-78277443D01*
X129322131Y-78299953D01*
X129264182Y-78319424D01*
X129218153Y-78334728D01*
X129187431Y-78344737D01*
X129175402Y-78348324D01*
X129173520Y-78340031D01*
X129172885Y-78314153D01*
X129173973Y-78276810D01*
X129177446Y-78205297D01*
X129433369Y-78119300D01*
X129475065Y-78105353D01*
X129545136Y-78082221D01*
X129606347Y-78062397D01*
X129655390Y-78046935D01*
X129688957Y-78036886D01*
X129703742Y-78033303D01*
X129707163Y-78033859D01*
G37*
G36*
X130663892Y-78150534D02*
G01*
X130684528Y-78160885D01*
X130710818Y-78180183D01*
X130746716Y-78210389D01*
X130746716Y-78359980D01*
X130746716Y-78509572D01*
X130701202Y-78567152D01*
X130655688Y-78624731D01*
X130412433Y-78707357D01*
X130382970Y-78717372D01*
X130313021Y-78741209D01*
X130251110Y-78762389D01*
X130200752Y-78779705D01*
X130165463Y-78791951D01*
X130148760Y-78797917D01*
X130139674Y-78800099D01*
X130132370Y-78794326D01*
X130129097Y-78774442D01*
X130128342Y-78735845D01*
X130128396Y-78725562D01*
X130130532Y-78688205D01*
X130136839Y-78667378D01*
X130148760Y-78657547D01*
X130164352Y-78651840D01*
X130198751Y-78639769D01*
X130247663Y-78622844D01*
X130307171Y-78602420D01*
X130373358Y-78579852D01*
X130434742Y-78558620D01*
X130495985Y-78536652D01*
X130547288Y-78517421D01*
X130584581Y-78502457D01*
X130603790Y-78493289D01*
X130616951Y-78482394D01*
X130625336Y-78466036D01*
X130629143Y-78438900D01*
X130630042Y-78394724D01*
X130630034Y-78387649D01*
X130629197Y-78347620D01*
X130625952Y-78325228D01*
X130618846Y-78315463D01*
X130606426Y-78313321D01*
X130604895Y-78313424D01*
X130583702Y-78318219D01*
X130544849Y-78329347D01*
X130492096Y-78345651D01*
X130429201Y-78365974D01*
X130359923Y-78389160D01*
X130345342Y-78394117D01*
X130278860Y-78416628D01*
X130220912Y-78436098D01*
X130174883Y-78451402D01*
X130144161Y-78461411D01*
X130132132Y-78464998D01*
X130130250Y-78456705D01*
X130129615Y-78430827D01*
X130130702Y-78393485D01*
X130134176Y-78321972D01*
X130390098Y-78235974D01*
X130431795Y-78222028D01*
X130501866Y-78198895D01*
X130563077Y-78179072D01*
X130612119Y-78163609D01*
X130645687Y-78153561D01*
X130660471Y-78149977D01*
X130663892Y-78150534D01*
G37*
G36*
X130702963Y-77624553D02*
G01*
X130746716Y-77650583D01*
X130746716Y-77765835D01*
X130746721Y-77776453D01*
X130747211Y-77825975D01*
X130749279Y-77858069D01*
X130754017Y-77877778D01*
X130762521Y-77890141D01*
X130775884Y-77900200D01*
X130789369Y-77910393D01*
X130802895Y-77931988D01*
X130798021Y-77958700D01*
X130774689Y-77995072D01*
X130772950Y-77997325D01*
X130746695Y-78023495D01*
X130726119Y-78027896D01*
X130725649Y-78027726D01*
X130704121Y-78031143D01*
X130677379Y-78050164D01*
X130651906Y-78066876D01*
X130603393Y-78089312D01*
X130532473Y-78116943D01*
X130439307Y-78149700D01*
X130438732Y-78149895D01*
X130372904Y-78171994D01*
X130314536Y-78191226D01*
X130267282Y-78206418D01*
X130234795Y-78216395D01*
X130220729Y-78219982D01*
X130217364Y-78219355D01*
X130197122Y-78210241D01*
X130169159Y-78193730D01*
X130128631Y-78167478D01*
X130128486Y-78016862D01*
X130128454Y-77983029D01*
X130245016Y-77983029D01*
X130245018Y-77987139D01*
X130245771Y-78025533D01*
X130249226Y-78046364D01*
X130257339Y-78054957D01*
X130272068Y-78056638D01*
X130281652Y-78055260D01*
X130311419Y-78047791D01*
X130354271Y-78035299D01*
X130405143Y-78019447D01*
X130458968Y-78001901D01*
X130510682Y-77984326D01*
X130555218Y-77968384D01*
X130587512Y-77955741D01*
X130602497Y-77948062D01*
X130602807Y-77945129D01*
X130591267Y-77932412D01*
X130566684Y-77915562D01*
X130557663Y-77910099D01*
X130536940Y-77893732D01*
X130531138Y-77876205D01*
X130540081Y-77851782D01*
X130563594Y-77814727D01*
X130565413Y-77812088D01*
X130588732Y-77787132D01*
X130609624Y-77783428D01*
X130621117Y-77784873D01*
X130630042Y-77777406D01*
X130624272Y-77769657D01*
X130603790Y-77765036D01*
X130593835Y-77766049D01*
X130561095Y-77773582D01*
X130515812Y-77786959D01*
X130462972Y-77804383D01*
X130407555Y-77824053D01*
X130354545Y-77844171D01*
X130308924Y-77862938D01*
X130275677Y-77878555D01*
X130259784Y-77889225D01*
X130253281Y-77905501D01*
X130247306Y-77940259D01*
X130245016Y-77983029D01*
X130128454Y-77983029D01*
X130128342Y-77866246D01*
X130174651Y-77804910D01*
X130220960Y-77743574D01*
X130440085Y-77671049D01*
X130603790Y-77616866D01*
X130659210Y-77598523D01*
X130702963Y-77624553D01*
G37*
G36*
X130754302Y-76574803D02*
G01*
X130926495Y-76574889D01*
X131080132Y-76575098D01*
X131216300Y-76575472D01*
X131336087Y-76576053D01*
X131440578Y-76576882D01*
X131530862Y-76578000D01*
X131608025Y-76579450D01*
X131673155Y-76581273D01*
X131727339Y-76583510D01*
X131771664Y-76586203D01*
X131807217Y-76589393D01*
X131835086Y-76593123D01*
X131856357Y-76597433D01*
X131872117Y-76602366D01*
X131883454Y-76607963D01*
X131891455Y-76614265D01*
X131897207Y-76621314D01*
X131901797Y-76629152D01*
X131906313Y-76637820D01*
X131911841Y-76647360D01*
X131936401Y-76685714D01*
X131936554Y-78482499D01*
X131936558Y-78531868D01*
X131936571Y-78766724D01*
X131936561Y-78979575D01*
X131936515Y-79171528D01*
X131936417Y-79343694D01*
X131936255Y-79497180D01*
X131936015Y-79633095D01*
X131935682Y-79752548D01*
X131935243Y-79856648D01*
X131934684Y-79946504D01*
X131933990Y-80023224D01*
X131933148Y-80087917D01*
X131932144Y-80141692D01*
X131930965Y-80185658D01*
X131929595Y-80220924D01*
X131928022Y-80248598D01*
X131926230Y-80269789D01*
X131924208Y-80285606D01*
X131921939Y-80297158D01*
X131919412Y-80305553D01*
X131916611Y-80311901D01*
X131913522Y-80317309D01*
X131912710Y-80318619D01*
X131885286Y-80351684D01*
X131852312Y-80378583D01*
X131850722Y-80379544D01*
X131845206Y-80382545D01*
X131838476Y-80385261D01*
X131829426Y-80387703D01*
X131816951Y-80389885D01*
X131799943Y-80391819D01*
X131777298Y-80393516D01*
X131747908Y-80394989D01*
X131710669Y-80396250D01*
X131664473Y-80397311D01*
X131608215Y-80398184D01*
X131540789Y-80398882D01*
X131461089Y-80399417D01*
X131368008Y-80399801D01*
X131260441Y-80400045D01*
X131137282Y-80400163D01*
X130997424Y-80400167D01*
X130839761Y-80400068D01*
X130663188Y-80399879D01*
X130466598Y-80399613D01*
X130248886Y-80399280D01*
X130008944Y-80398894D01*
X128203603Y-80395958D01*
X128159656Y-80352012D01*
X128115710Y-80308065D01*
X128112638Y-78496890D01*
X128112370Y-78326630D01*
X128112071Y-78081018D01*
X128111916Y-77857594D01*
X128111910Y-77655663D01*
X128112057Y-77474529D01*
X128112360Y-77313494D01*
X128112824Y-77171862D01*
X128113452Y-77048937D01*
X128114247Y-76944022D01*
X128115215Y-76856420D01*
X128116358Y-76785435D01*
X128117211Y-76749885D01*
X128273220Y-76749885D01*
X128273220Y-78494166D01*
X128273220Y-80238448D01*
X130017501Y-80238448D01*
X131761782Y-80238448D01*
X131761782Y-78494166D01*
X131761782Y-76749885D01*
X130017501Y-76749885D01*
X128273220Y-76749885D01*
X128117211Y-76749885D01*
X128117680Y-76730370D01*
X128119186Y-76690529D01*
X128120878Y-76665215D01*
X128122762Y-76653732D01*
X128124068Y-76650831D01*
X128144731Y-76622643D01*
X128173880Y-76598312D01*
X128175600Y-76597261D01*
X128181094Y-76594241D01*
X128187799Y-76591506D01*
X128196822Y-76589042D01*
X128209268Y-76586834D01*
X128226244Y-76584868D01*
X128248856Y-76583130D01*
X128278209Y-76581606D01*
X128315411Y-76580282D01*
X128361568Y-76579145D01*
X128417785Y-76578179D01*
X128485168Y-76577371D01*
X128564825Y-76576706D01*
X128657861Y-76576172D01*
X128765382Y-76575753D01*
X128888495Y-76575435D01*
X129028306Y-76575205D01*
X129185920Y-76575048D01*
X129362445Y-76574951D01*
X129558986Y-76574899D01*
X129776649Y-76574878D01*
X130016541Y-76574874D01*
X130017501Y-76574874D01*
X130115514Y-76574870D01*
X130349898Y-76574835D01*
X130562465Y-76574799D01*
X130754302Y-76574803D01*
G37*
%TD*%
%LPC*%
D12*
%TO.C,J2*%
X134000000Y-87100000D03*
D13*
X131460000Y-87100000D03*
X128920000Y-87100000D03*
X126380000Y-87100000D03*
%TD*%
D14*
%TO.C,REF\u002A\u002A*%
X138400000Y-86500000D03*
%TD*%
D15*
%TO.C,J3*%
X136085000Y-81090000D03*
X136085000Y-75310000D03*
D16*
X135585000Y-82520000D03*
D17*
X139765000Y-82520000D03*
D16*
X135585000Y-73880000D03*
D17*
X139765000Y-73880000D03*
%TD*%
D18*
%TO.C,J1*%
X129170000Y-83900000D03*
D19*
X127900000Y-83900000D03*
X126630000Y-83900000D03*
X125360000Y-83900000D03*
%TD*%
D14*
%TO.C,REF\u002A\u002A*%
X138400000Y-70000000D03*
%TD*%
%TO.C,REF\u002A\u002A*%
X121900000Y-86500000D03*
%TD*%
%TO.C,REF\u002A\u002A*%
X121900000Y-70000000D03*
%TD*%
%LPD*%
M02*
